<svg width="236" height="52" viewBox="0 0 236 52" fill="none" xmlns="http://www.w3.org/2000/svg">
<path d="M84.0575 34.3798H80.2968V16.5436H86.4034C87.7659 16.5436 88.9308 16.8096 89.8981 17.3417C90.8736 17.8657 91.6153 18.5791 92.1231 19.482C92.6391 20.3769 92.897 21.3886 92.897 22.5172C92.897 23.6378 92.635 24.6656 92.111 25.6008C91.5951 26.5278 90.8534 27.2735 89.886 27.8379C88.9187 28.3941 87.7578 28.6722 86.4034 28.6722H84.0575V34.3798ZM84.0575 27.5114L82.3646 25.7701H86.0044C86.6332 25.7701 87.1814 25.6451 87.649 25.3952C88.1165 25.1372 88.4793 24.7664 88.7373 24.2827C88.9952 23.7909 89.1242 23.2024 89.1242 22.5172C89.1242 21.8239 88.9952 21.2515 88.7373 20.8001C88.4874 20.3406 88.1286 20.002 87.6611 19.7843C87.2015 19.5586 86.6493 19.4457 86.0044 19.4457H82.3646L84.0575 17.6561V27.5114ZM92.9724 34.3798L97.4224 16.5194H103.36L107.786 34.3798H103.94L100.385 18.8049H100.409L96.8178 34.3798H92.9724ZM96.1648 30.2442V27.3179H104.629V30.2442H96.1648ZM120.781 16.5436L115.606 28.2369V34.3798H111.869V28.2369L106.718 16.5436H110.684L114.493 26.3626H112.994L116.803 16.5436H120.781ZM135.388 16.5436H141.737V34.3798H138.182V18.7565L138.254 18.8049L134.772 34.3798H129.862L126.319 18.7686L126.392 18.7323V34.3798H122.825V16.5436H129.173L132.426 32.6022H132.111L135.388 16.5436ZM146.924 19.4457L148.617 17.6561V25.0445L147.771 23.9804H154.349V26.8826H147.771L148.617 25.8184V33.2673L146.924 31.4777H155.691V34.3798H144.845V16.5436H155.691V19.4457H146.924ZM162.301 34.3798H158.637V16.5436H164.466L170.44 33.0255L169.811 33.1827V16.5436H173.463V34.3798H167.598L161.624 17.9463L162.301 17.7891V34.3798ZM188.26 19.4457H182.371L183.871 17.6561V34.3798H180.134V17.6561L181.682 19.4457H175.757V16.5436H188.26V19.4457ZM196.591 34.67C195.302 34.67 194.165 34.4645 193.181 34.0533C192.206 33.6422 191.44 33.0295 190.884 32.2153C190.336 31.393 190.061 30.3732 190.061 29.1559C190.061 29.0269 190.061 28.91 190.061 28.8052C190.061 28.6924 190.061 28.5715 190.061 28.4425H193.822C193.822 28.5634 193.822 28.6722 193.822 28.769C193.822 28.8576 193.822 28.9624 193.822 29.0834C193.822 29.9137 194.056 30.5506 194.524 30.994C194.991 31.4373 195.684 31.659 196.603 31.659C197.531 31.659 198.244 31.5139 198.744 31.2237C199.244 30.9254 199.494 30.4377 199.494 29.7605C199.494 29.2849 199.304 28.8657 198.925 28.5029C198.554 28.1402 198.046 27.8177 197.402 27.5355C196.765 27.2453 196.035 26.9753 195.213 26.7254C194.318 26.4432 193.488 26.0724 192.722 25.6129C191.956 25.1533 191.339 24.5689 190.872 23.8595C190.412 23.15 190.182 22.2754 190.182 21.2354C190.182 20.1874 190.461 19.2966 191.017 18.563C191.573 17.8213 192.331 17.257 193.29 16.8701C194.249 16.4751 195.334 16.2775 196.543 16.2775C197.809 16.2775 198.925 16.4751 199.893 16.8701C200.868 17.257 201.63 17.8415 202.178 18.6235C202.734 19.3974 203.012 20.3648 203.012 21.5256C203.012 21.6546 203.012 21.7755 203.012 21.8884C203.012 21.9932 203.012 22.1141 203.012 22.2512H199.264C199.264 22.1625 199.264 22.0698 199.264 21.9731C199.264 21.8763 199.264 21.7836 199.264 21.6949C199.264 20.913 199.046 20.3124 198.611 19.8932C198.184 19.474 197.51 19.2644 196.591 19.2644C195.705 19.2644 195.015 19.4256 194.524 19.7481C194.04 20.0705 193.798 20.5663 193.798 21.2354C193.798 21.7191 193.971 22.1303 194.318 22.4688C194.673 22.8074 195.156 23.1097 195.769 23.3758C196.382 23.6418 197.079 23.9078 197.861 24.1739C198.925 24.5447 199.852 24.9558 200.642 25.4073C201.44 25.8507 202.057 26.411 202.492 27.0881C202.928 27.7572 203.145 28.6118 203.145 29.6517C203.145 30.7158 202.871 31.6228 202.323 32.3725C201.775 33.1222 201.005 33.6946 200.014 34.0896C199.03 34.4766 197.889 34.67 196.591 34.67Z" fill="black"/>
<rect x="3.47116" y="3.47116" width="228.688" height="44.4273" rx="22.2137" stroke="url(#paint0_linear_2002_357)" stroke-width="6.94232"/>
<path d="M68.5969 14.8667C68.7293 14.5062 68.7889 14.1098 68.7135 13.7282C68.6383 13.3468 68.4381 13.0142 68.1418 12.7922C67.8455 12.5703 67.47 12.4716 67.0828 12.5067C66.6954 12.5417 66.3318 12.7102 66.023 12.9387C66.023 12.9387 66.023 12.9387 66.023 12.9387C65.0134 13.6905 64.0323 14.4638 63.0799 15.2585C59.2701 18.4372 55.9178 21.9587 53.0232 25.8229C51.645 27.6627 50.2784 29.5111 48.9233 31.3681L55.749 31.4102C52.4963 27.0699 49.179 22.7768 45.7969 18.5311C44.1948 16.1383 41.3471 16.3063 39.6078 18.6013C36.7443 23.1099 33.9445 27.6628 31.2085 32.2601L35.6911 31.9295C32.8601 29.3204 29.9997 26.7389 27.1101 24.1849C26.2019 23.3822 25.2907 22.5821 24.3767 21.7848C24.0691 21.5169 23.6749 21.3532 23.2615 21.3481C22.8483 21.3429 22.4524 21.4941 22.1568 21.7723C21.8611 22.0506 21.6863 22.4366 21.6665 22.8494C21.6466 23.2624 21.7861 23.6657 22.0349 23.989C22.0349 23.989 22.0349 23.989 22.0349 23.989C22.7755 24.9495 23.5189 25.9074 24.2653 26.8625C26.6398 29.9014 29.0436 32.9126 31.4766 35.8963C32.9343 37.2414 34.9439 37.2695 35.9593 35.5657C39.3189 31.4023 42.6148 27.1946 45.847 22.9425L39.6579 23.0127C42.6713 27.5276 45.7494 31.9953 48.8922 36.4157C50.7686 38.9212 53.8719 38.9857 55.7178 36.4578C57.119 34.6353 58.5087 32.8041 59.8868 30.9644C62.7815 27.1001 65.2186 22.8931 67.1981 18.3433C67.6929 17.2059 68.1592 16.047 68.5969 14.8667Z" fill="url(#paint1_linear_2002_357)"/>
<defs>
<linearGradient id="paint0_linear_2002_357" x1="117.815" y1="0" x2="117.815" y2="51.3696" gradientUnits="userSpaceOnUse">
<stop stop-color="#3872D5"/>
<stop offset="1" stop-color="#51C3D3"/>
</linearGradient>
<linearGradient id="paint1_linear_2002_357" x1="45.2579" y1="13.9027" x2="45.2579" y2="33.9129" gradientUnits="userSpaceOnUse">
<stop stop-color="#3872D5"/>
<stop offset="1" stop-color="#51C3D3"/>
</linearGradient>
</defs>
</svg>
