<svg width="92" height="11" viewBox="0 0 92 11" fill="none" xmlns="http://www.w3.org/2000/svg">
<path d="M55.7481 0.000953949C55.6159 0.00357855 55.4837 0.0119131 55.3523 0.0250247C54.5683 0.0995976 53.7907 0.453119 53.2779 1.07255C52.7172 1.74453 52.535 2.70825 52.7758 3.55094C52.8703 3.87189 53.0422 4.16517 53.2483 4.42507C53.5316 4.77349 53.8879 5.05513 54.2689 5.28493C54.6275 5.49162 54.9929 5.68564 55.3607 5.87488C55.7102 6.04931 56.0565 6.2393 56.359 6.49092C56.5212 6.62369 56.6541 6.80062 56.7098 7.0071C56.7722 7.23756 56.7553 7.50082 56.6218 7.70292C56.4705 7.93405 56.2078 8.07456 55.9391 8.0992C55.6192 8.12645 55.296 8.07249 54.9946 7.96347C54.5969 7.82764 54.2332 7.60862 53.89 7.36638C53.7974 7.29596 53.6774 7.26208 53.563 7.28302C53.4812 7.29893 53.4183 7.36285 53.3791 7.43458C53.1749 7.80022 52.9711 8.16617 52.7667 8.53203C52.7165 8.62316 52.6775 8.73644 52.721 8.83826C52.7758 8.97126 52.8992 9.05379 53.0034 9.14427C53.455 9.51973 54.0086 9.7428 54.5691 9.88801C54.9395 9.98874 55.3226 10.0342 55.7055 10.0442C56.1259 10.058 56.5511 10.0224 56.9557 9.90094C57.5429 9.71953 58.0936 9.38523 58.4915 8.90512C58.9138 8.40081 59.1521 7.73609 59.1292 7.07218C59.1219 6.62499 59.0209 6.17198 58.7846 5.79064C58.4932 5.28437 58.0373 4.90202 57.5501 4.60114C56.8788 4.20236 56.1485 3.91415 55.4913 3.48965C55.3028 3.36341 55.1053 3.23413 54.9783 3.03899C54.7662 2.73026 54.873 2.27015 55.1639 2.05321C55.3141 1.94638 55.5026 1.91519 55.6824 1.91257C56.0395 1.90755 56.3876 2.01863 56.7098 2.16777C57.0046 2.30709 57.2806 2.48336 57.5525 2.66367C57.6804 2.74892 57.851 2.78586 57.9911 2.70802C58.1221 2.65612 58.1845 2.52235 58.2588 2.41159C58.4521 2.11464 58.6453 1.81749 58.8387 1.52075C58.9002 1.42961 58.9044 1.31113 58.8913 1.20516C58.8673 1.07173 58.7276 1.02251 58.6346 0.947291C58.1176 0.578374 57.5381 0.299858 56.9256 0.140921C56.5425 0.0346245 56.1448 -0.00702256 55.7481 0.000953949ZM45.7623 0.053553C45.7123 0.0516131 45.6609 0.0562832 45.6123 0.0562832C45.515 0.0575385 45.4337 0.129581 45.399 0.218761C43.9688 3.34861 42.5381 6.47851 41.1079 9.60836C41.0715 9.68249 41.0673 9.77617 41.116 9.84572C41.1639 9.92509 41.2568 9.96489 41.3464 9.96184C41.8463 9.96184 42.3465 9.96184 42.8464 9.96184C42.9428 9.96184 43.0425 9.94642 43.1256 9.8941C43.2281 9.82455 43.3068 9.72127 43.3559 9.60702C43.5176 9.24161 43.6791 8.87589 43.8409 8.51048C45.0842 8.51048 46.3276 8.51048 47.5707 8.51048C47.7314 8.86979 47.8923 9.22877 48.0532 9.58808C48.1002 9.68837 48.1547 9.7884 48.2344 9.86602C48.3167 9.9456 48.4365 9.96097 48.5451 9.96184C49.0529 9.96184 49.5607 9.96184 50.0685 9.96184C50.1628 9.96538 50.2591 9.91759 50.3043 9.83146C50.3465 9.76016 50.335 9.67074 50.2996 9.59944C48.887 6.50862 47.4742 3.4179 46.0618 0.326856C46.0224 0.241169 45.9885 0.143396 45.9049 0.0914978C45.8611 0.0644644 45.8123 0.0557943 45.7623 0.0538316V0.053553ZM83.2878 0.124651C83.2221 0.127161 83.1586 0.139526 83.1046 0.18193C83.0311 0.234913 83.0063 0.330524 83.0123 0.417957C83.0179 3.53516 83.0204 6.65246 83.0268 9.76989C83.0219 9.91335 83.1508 10.0405 83.2916 10.0327C83.8201 10.0339 84.3488 10.0327 84.8776 10.0338C85.0374 10.0578 85.1945 9.91667 85.1791 9.7503C85.18 8.01848 85.1781 6.28641 85.1803 4.55459C85.8766 5.25731 86.5641 5.96906 87.2573 6.67504C88.347 7.78963 89.4365 8.90429 90.5264 10.0186C90.6128 10.1087 90.7307 10.1714 90.8565 10.1724C90.9724 10.1724 91.1089 10.1912 91.2006 10.1016C91.2788 10.0294 91.2669 9.91285 91.2677 9.81561C91.2673 6.72674 91.2679 3.6379 91.2675 0.549037C91.2801 0.401215 91.1537 0.260554 91.0072 0.266443C90.4565 0.265301 89.9059 0.264959 89.3554 0.266443C89.2189 0.264046 89.0979 0.388984 89.1016 0.527655C89.0992 2.18274 89.1024 3.83783 89.0998 5.49291C88.5461 4.9607 88.0007 4.41943 87.4503 3.88373C86.223 2.68346 84.9958 1.48343 83.7685 0.283381C83.6899 0.207062 83.6018 0.12081 83.4848 0.126699C83.4215 0.129665 83.3535 0.122363 83.2878 0.124874L83.2878 0.124651ZM70.988 0.124651C70.9314 0.127047 70.8761 0.136436 70.8253 0.16566C70.7366 0.20948 70.7128 0.315617 70.6642 0.394332C69.7962 2.03873 68.9283 3.68288 68.0605 5.32727C67.8848 5.65301 67.7209 5.98544 67.5379 6.30682C67.462 6.19126 67.4061 6.0641 67.3391 5.94353C66.3537 4.07586 65.3678 2.20828 64.3824 0.340396C64.3473 0.276949 64.321 0.199263 64.2513 0.166775C64.1496 0.107253 64.0289 0.128588 63.9172 0.125097C63.7848 0.114826 63.6561 0.220819 63.642 0.355997C63.1254 3.48019 62.6091 6.60448 62.0928 9.72865C62.081 9.79254 62.0845 9.86314 62.1231 9.91765C62.1788 9.99832 62.278 10.037 62.3731 10.0327C62.9101 10.0315 63.4469 10.0341 63.9839 10.0315C64.1112 10.033 64.2192 9.92088 64.2344 9.79595C64.4362 8.36063 64.635 6.92458 64.8377 5.48928C64.881 5.50759 64.891 5.55764 64.9135 5.5947C65.672 7.07623 66.4317 8.55689 67.1906 10.0382C67.2352 10.1261 67.3353 10.1748 67.4307 10.1724C67.5757 10.1695 67.751 10.2021 67.8584 10.0761C67.931 9.96229 67.9827 9.83565 68.0474 9.71704C68.7564 8.32535 69.4662 6.93424 70.1748 5.5421C70.1842 5.51856 70.2002 5.50083 70.2229 5.48907C70.4305 6.92349 70.6337 8.35861 70.84 9.79326C70.857 9.92648 70.9814 10.0385 71.1149 10.0324C71.6509 10.0324 72.1871 10.0336 72.7231 10.0324C72.8303 10.0338 72.9451 9.96917 72.9783 9.86124C73.0015 9.77948 72.9737 9.69562 72.9632 9.61429C72.4522 6.52566 71.9424 3.43683 71.4313 0.348183C71.4142 0.216702 71.2871 0.115918 71.1583 0.125514C71.1026 0.127226 71.0447 0.122662 70.988 0.125514V0.124651ZM8.68233 0.141812C8.6821 3.3773 8.68233 6.61263 8.68233 9.84812H9.23083V0.141812H8.68233ZM36.4669 0.142955C36.4125 0.144096 36.3567 0.140222 36.3042 0.157442C36.1943 0.193205 36.1211 0.30891 36.1288 0.42534C36.1279 2.67173 36.1299 4.9181 36.1282 7.1647C36.1307 7.41936 36.0541 7.68511 35.8694 7.86498C35.7113 8.01934 35.4772 8.04321 35.2685 8.0395C35.0213 8.03664 34.7875 7.91726 34.6141 7.74218C34.5145 7.63447 34.3392 7.66053 34.2417 7.75756C33.9424 8.05583 33.6453 8.35636 33.346 8.65486C33.2894 8.71024 33.2447 8.78394 33.2421 8.8657C33.2391 8.94964 33.2804 9.02731 33.3337 9.08836C33.4723 9.25188 33.6214 9.40911 33.7971 9.53165C34.2637 9.86044 34.8289 10.0418 35.396 10.0494C36.0521 10.0662 36.7299 9.89776 37.2602 9.49288C37.6915 9.1667 38.0049 8.69352 38.1733 8.177C38.2853 7.82968 38.3239 7.46217 38.3231 7.09806C38.3228 4.86781 38.3239 2.63776 38.3224 0.40751C38.3267 0.270586 38.2088 0.144954 38.0739 0.144738C37.5382 0.141428 37.0026 0.144735 36.4669 0.142955ZM24.8501 0.214721C24.8499 3.45021 24.8501 6.68553 24.8501 9.92103C26.6968 9.92103 28.5432 9.92103 30.39 9.92103C30.3895 9.74974 30.3897 9.57859 30.3897 9.40729C28.726 9.40729 27.0623 9.40729 25.3986 9.40729C25.3984 7.9895 25.3988 6.57169 25.3986 5.1539C26.8382 5.15276 28.2781 5.1539 29.718 5.1539V4.64039C28.2781 4.64039 26.8384 4.64039 25.3986 4.64039V0.729582C27.0625 0.729582 28.7262 0.729582 30.39 0.729582C30.3895 0.558298 30.3904 0.387133 30.3897 0.215849L24.8501 0.214721ZM76.9429 0.264646C76.8964 0.264646 76.8491 0.264549 76.8051 0.280456C76.6972 0.318399 76.6263 0.433689 76.6346 0.549023C76.6346 3.57247 76.6349 6.59602 76.6346 9.61947C76.6357 9.69186 76.6288 9.76526 76.6433 9.83678C76.6703 9.95211 76.7829 10.0373 76.8992 10.0322C77.4214 10.0335 77.9434 10.0322 78.4656 10.0334C78.5434 10.0349 78.6285 10.0351 78.6934 9.98413C78.7742 9.92787 78.8081 9.82553 78.8017 9.72916C78.8012 6.70527 78.8015 3.6815 78.8017 0.657829C78.7991 0.574104 78.8121 0.484278 78.7723 0.407092C78.7269 0.317696 78.6294 0.260978 78.5307 0.265565C78.0014 0.264424 77.4721 0.265565 76.9429 0.265565L76.9429 0.264646ZM0.00124043 0.287379C-0.000688087 3.52286 -4.89269e-05 6.75819 0.00101233 9.99368H5.23887C5.23864 9.82239 5.23886 9.65124 5.23864 9.47995C3.67561 9.47995 2.11253 9.47995 0.549288 9.47995C0.54906 6.41597 0.549517 3.35156 0.54906 0.287588L0.00124043 0.287379ZM20.5303 0.432918C19.3686 3.27787 18.2084 6.12326 17.0469 8.96821C15.8899 6.12347 14.7342 3.27811 13.5774 0.433141C13.3764 0.433141 13.1755 0.433141 12.9745 0.433141C14.2952 3.66864 15.6161 6.90395 16.9373 10.1392H17.1292C18.4501 6.90373 19.7712 3.66864 21.0919 0.433141C20.9047 0.433141 20.7173 0.433141 20.5303 0.433141V0.432918ZM45.6983 4.30049C46.0536 5.06862 46.3971 5.84254 46.7478 6.61264C46.0532 6.61264 45.3586 6.61264 44.6639 6.61264C45.0091 5.84211 45.3506 5.06972 45.6983 4.30049Z" fill="white"/>
</svg>
