<svg width="92" height="19" viewBox="0 0 92 19" fill="none" xmlns="http://www.w3.org/2000/svg">
<path d="M4.1648 12.4904C2.90446 12.4904 1.89524 12.2541 1.13715 11.7816C0.379049 11.2996 0 10.5672 0 9.58429C0 9.0645 0.0900241 8.66758 0.270072 8.39351C0.45012 8.11944 0.715454 7.9824 1.06607 7.9824C1.32193 7.9824 1.53041 8.04856 1.6915 8.18087C1.8526 8.31318 1.93315 8.48329 1.93315 8.6912C1.93315 8.88022 1.91893 9.0456 1.89051 9.18736C1.89051 9.22516 1.88103 9.29132 1.86208 9.38583C1.8526 9.48033 1.84786 9.57956 1.84786 9.68352C1.84786 10.1088 2.06108 10.4254 2.48751 10.6333C2.92341 10.8412 3.52989 10.9452 4.30694 10.9452C5.11242 10.9452 5.74259 10.8034 6.19745 10.5199C6.6523 10.2269 6.87973 9.82056 6.87973 9.30077C6.87973 8.97945 6.77549 8.70538 6.56702 8.47856C6.35854 8.2423 6.09795 8.04856 5.78523 7.89735C5.47251 7.73669 5.03187 7.54295 4.4633 7.31613C3.73363 7.03261 3.13663 6.76327 2.67229 6.5081C2.21743 6.25293 1.82417 5.90799 1.4925 5.47326C1.17031 5.02908 1.00922 4.48094 1.00922 3.82884C1.00922 3.1484 1.18927 2.54355 1.54936 2.01432C1.91893 1.48508 2.44486 1.07398 3.12715 0.781008C3.81892 0.488038 4.62913 0.341553 5.5578 0.341553C6.24956 0.341553 6.88447 0.44551 7.46252 0.653424C8.04057 0.851888 8.50017 1.15903 8.84131 1.57486C9.19193 1.99069 9.36724 2.50103 9.36724 3.10587C9.36724 3.70126 9.27722 4.15017 9.09717 4.45259C8.91712 4.75501 8.65178 4.90622 8.30117 4.90622C8.05478 4.90622 7.84631 4.83061 7.67573 4.6794C7.51464 4.52819 7.43409 4.34863 7.43409 4.14071C7.43409 3.96115 7.44831 3.79577 7.47673 3.64455C7.50516 3.36104 7.51938 3.18147 7.51938 3.10587C7.51938 2.70894 7.32512 2.40652 6.93659 2.19861C6.54807 1.99069 6.06478 1.88673 5.48673 1.88673C4.67177 1.88673 4.04634 2.03795 3.61044 2.34037C3.18401 2.63334 2.97079 3.04916 2.97079 3.58785C2.97079 3.94698 3.07977 4.25412 3.29772 4.50929C3.52515 4.76446 3.8047 4.9771 4.13637 5.14721C4.46804 5.31732 4.93237 5.52051 5.52937 5.75678C6.24956 6.04975 6.82761 6.31436 7.26352 6.55063C7.69943 6.7869 8.069 7.10822 8.37224 7.5146C8.68495 7.92097 8.84131 8.42186 8.84131 9.01725C8.84131 10.1324 8.41488 10.9924 7.56202 11.5973C6.71864 12.1927 5.58623 12.4904 4.1648 12.4904Z" fill="#EB458C"/>
<path d="M16.3942 9.21571C16.5174 9.21571 16.6122 9.27242 16.6785 9.38583C16.7543 9.49923 16.7922 9.65517 16.7922 9.85363C16.7922 10.2317 16.7022 10.5246 16.5222 10.7325C16.1715 11.1578 15.674 11.55 15.0296 11.9092C14.3947 12.2683 13.7125 12.4478 12.9828 12.4478C11.9878 12.4478 11.2155 12.1785 10.6659 11.6398C10.1162 11.1011 9.84142 10.364 9.84142 9.42835C9.84142 8.77626 9.97883 8.17142 10.2536 7.61383C10.5284 7.04679 10.9075 6.59788 11.3908 6.26711C11.8835 5.93634 12.4379 5.77095 13.0539 5.77095C13.6035 5.77095 14.0441 5.93634 14.3758 6.26711C14.7075 6.58843 14.8733 7.02789 14.8733 7.58548C14.8733 8.23757 14.6364 8.79989 14.1626 9.27242C13.6982 9.7355 12.907 10.1041 11.7888 10.3781C12.0257 10.8129 12.4758 11.0302 13.1391 11.0302C13.5656 11.0302 14.0489 10.8838 14.589 10.5908C15.1386 10.2884 15.6124 9.89616 16.0104 9.41418C16.1242 9.28187 16.2521 9.21571 16.3942 9.21571ZM12.8122 7.1602C12.4616 7.1602 12.1631 7.36339 11.9167 7.76976C11.6798 8.17614 11.5614 8.66758 11.5614 9.24407V9.27242C12.1205 9.14011 12.5611 8.94164 12.8833 8.67703C13.2055 8.41241 13.3666 8.10526 13.3666 7.75559C13.3666 7.57603 13.3145 7.43427 13.2102 7.33031C13.1155 7.2169 12.9828 7.1602 12.8122 7.1602Z" fill="#EB458C"/>
<path d="M23.8382 9.21571C23.9614 9.21571 24.0562 9.27242 24.1225 9.38583C24.1983 9.49923 24.2362 9.65517 24.2362 9.85363C24.2362 10.2317 24.1462 10.5246 23.9661 10.7325C23.5492 11.224 23.0896 11.6351 22.5873 11.9659C22.0946 12.2872 21.5355 12.4478 20.91 12.4478C20.4268 12.4478 19.9956 12.3581 19.6165 12.1785C19.247 11.9989 18.9532 11.7438 18.7353 11.413C18.1951 12.0934 17.5555 12.4337 16.8163 12.4337C16.2951 12.4337 15.8829 12.2825 15.5797 11.98C15.2764 11.6776 15.1248 11.276 15.1248 10.7751C15.1248 10.3025 15.2338 9.91979 15.4517 9.62682C15.6697 9.33385 15.9777 9.18736 16.3757 9.18736C16.7168 9.18736 16.8874 9.31495 16.8874 9.57011C16.8874 9.63627 16.8779 9.7544 16.859 9.92451C16.8305 10.2647 16.8163 10.4585 16.8163 10.5057C16.8163 10.7892 16.9395 10.931 17.1859 10.931C17.3659 10.931 17.5365 10.8271 17.6976 10.6191C17.8682 10.4018 18.0056 10.1088 18.1098 9.74023C18.2235 9.37165 18.2804 8.96527 18.2804 8.52109C18.2804 8.18087 18.2378 7.89735 18.1525 7.67053C18.0672 7.43427 17.9629 7.31613 17.8398 7.31613C17.7355 7.31613 17.6597 7.34449 17.6123 7.40119C17.5649 7.44844 17.5176 7.5335 17.4702 7.65636C17.4133 7.80757 17.3375 7.93043 17.2428 8.02493C17.148 8.10999 16.9822 8.15252 16.7453 8.15252C16.5368 8.15252 16.3709 8.08164 16.2477 7.93988C16.1246 7.78867 16.063 7.56185 16.063 7.25943C16.063 6.77745 16.2098 6.39942 16.5036 6.12535C16.7974 5.85128 17.1764 5.71425 17.6408 5.71425C18.0388 5.71425 18.3989 5.81348 18.721 6.01194C19.0432 6.20096 19.2896 6.47975 19.4602 6.84833C19.7445 6.4703 20.0619 6.18678 20.4125 5.99777C20.7726 5.80875 21.1233 5.71425 21.4644 5.71425C21.834 5.71425 22.1135 5.7993 22.3031 5.96942C22.5021 6.13953 22.6016 6.4136 22.6016 6.79162C22.6016 7.2169 22.521 7.5524 22.3599 7.79812C22.1988 8.03438 22.0046 8.15252 21.7771 8.15252C21.5686 8.15252 21.4265 8.10999 21.3507 8.02493C21.2749 7.93988 21.218 7.81702 21.1801 7.65636C21.1612 7.54295 21.1327 7.45789 21.0948 7.40119C21.0569 7.34449 20.9906 7.31613 20.8958 7.31613C20.7821 7.31613 20.6589 7.42482 20.5263 7.64218C20.4031 7.8501 20.2941 8.12889 20.1993 8.47856C20.114 8.82824 20.0714 9.19209 20.0714 9.57011C20.0714 10.0143 20.1756 10.3592 20.3841 10.605C20.6021 10.8412 20.8958 10.9594 21.2654 10.9594C21.635 10.9594 21.9809 10.8365 22.3031 10.5908C22.6347 10.3356 23.0185 9.94341 23.4544 9.41418C23.5681 9.28187 23.6961 9.21571 23.8382 9.21571Z" fill="#EB458C"/>
<path d="M28.0641 5.77095C28.282 5.77095 28.4336 5.7993 28.5189 5.85601C28.6042 5.91271 28.6469 6.00722 28.6469 6.13953C28.6469 6.36634 28.5237 7.17437 28.2773 8.56362C28.0593 9.89616 27.9314 10.6853 27.8935 10.931C27.5429 13.3598 27.0596 15.283 26.4436 16.7006C25.8277 18.1182 25.008 18.827 23.9846 18.827C23.5013 18.827 23.108 18.6758 22.8048 18.3734C22.5015 18.0804 22.3499 17.6929 22.3499 17.211C22.3499 16.7668 22.4494 16.3132 22.6484 15.8501C22.8569 15.387 23.2359 14.853 23.7856 14.2482C24.3447 13.6528 25.1312 12.9676 26.1451 12.1927L26.1878 11.8666C26.2541 11.5169 26.3299 11.0161 26.4152 10.364C26.2257 11.0444 25.9604 11.5642 25.6192 11.9233C25.2781 12.273 24.918 12.4478 24.5389 12.4478C24.1125 12.4478 23.7619 12.2541 23.4871 11.8666C23.2217 11.4697 23.0891 10.9783 23.0891 10.3923C23.0891 9.68352 23.1364 9.03615 23.2312 8.45021C23.326 7.85482 23.4823 7.22635 23.7003 6.56481C23.795 6.28129 23.9277 6.0781 24.0983 5.95524C24.2688 5.83238 24.5389 5.77095 24.9085 5.77095C25.117 5.77095 25.2591 5.80403 25.3349 5.87018C25.4202 5.93634 25.4629 6.03557 25.4629 6.16788C25.4629 6.24348 25.4107 6.49865 25.3065 6.93338C25.2117 7.28306 25.1359 7.59965 25.0791 7.88317C25.0033 8.27065 24.9369 8.64395 24.8801 9.00307C24.8232 9.35275 24.7948 9.64099 24.7948 9.86781C24.7948 10.2269 24.8943 10.4065 25.0933 10.4065C25.2354 10.4065 25.4107 10.2647 25.6192 9.98122C25.8372 9.6977 26.0646 9.26769 26.3015 8.6912C26.5479 8.11471 26.7848 7.40591 27.0122 6.56481C27.088 6.28129 27.2017 6.0781 27.3534 5.95524C27.5145 5.83238 27.7514 5.77095 28.0641 5.77095ZM24.1409 17.452C24.3778 17.452 24.6432 17.1779 24.9369 16.6297C25.2307 16.0816 25.5244 15.1696 25.8182 13.8938C25.0885 14.5081 24.5579 15.0657 24.2262 15.5666C23.904 16.0769 23.7429 16.5211 23.7429 16.8991C23.7429 17.0598 23.7713 17.1921 23.8282 17.296C23.8945 17.4 23.9988 17.452 24.1409 17.452Z" fill="#EB458C"/>
<path d="M34.1346 12.489C32.8743 12.489 31.8651 12.2528 31.107 11.7802C30.3489 11.2983 29.9698 10.5658 29.9698 9.58296C29.9698 9.06317 30.0599 8.66625 30.2399 8.39218C30.42 8.11811 30.6853 7.98107 31.0359 7.98107C31.2918 7.98107 31.5003 8.04723 31.6614 8.17954C31.8224 8.31185 31.903 8.48196 31.903 8.68987C31.903 8.87889 31.8888 9.04427 31.8604 9.18603C31.8604 9.22383 31.8509 9.28999 31.8319 9.3845C31.8224 9.479 31.8177 9.57823 31.8177 9.68219C31.8177 10.1075 32.0309 10.4241 32.4574 10.632C32.8933 10.8399 33.4997 10.9439 34.2768 10.9439C35.0823 10.9439 35.7124 10.8021 36.1673 10.5186C36.6222 10.2256 36.8496 9.81923 36.8496 9.29944C36.8496 8.97812 36.7453 8.70405 36.5369 8.47723C36.3284 8.24097 36.0678 8.04723 35.7551 7.89602C35.4424 7.73536 35.0017 7.54162 34.4331 7.3148C33.7035 7.03128 33.1065 6.76194 32.6421 6.50677C32.1873 6.25161 31.794 5.90666 31.4624 5.47193C31.1402 5.02775 30.9791 4.47961 30.9791 3.82751C30.9791 3.14707 31.1591 2.54223 31.5192 2.01299C31.8888 1.48375 32.4147 1.07265 33.097 0.779679C33.7888 0.486708 34.599 0.340223 35.5276 0.340223C36.2194 0.340223 36.8543 0.44418 37.4324 0.652095C38.0104 0.850558 38.47 1.1577 38.8112 1.57353C39.1618 1.98936 39.3371 2.4997 39.3371 3.10454C39.3371 3.69993 39.2471 4.14884 39.067 4.45126C38.887 4.75368 38.6216 4.90489 38.271 4.90489C38.0246 4.90489 37.8162 4.82928 37.6456 4.67807C37.4845 4.52686 37.4039 4.3473 37.4039 4.13938C37.4039 3.95982 37.4182 3.79444 37.4466 3.64323C37.475 3.35971 37.4892 3.18014 37.4892 3.10454C37.4892 2.70761 37.295 2.40519 36.9064 2.19728C36.5179 1.98936 36.0346 1.8854 35.4566 1.8854C34.6416 1.8854 34.0162 2.03662 33.5803 2.33904C33.1539 2.63201 32.9406 3.04783 32.9406 3.58652C32.9406 3.94565 33.0496 4.25279 33.2676 4.50796C33.495 4.76313 33.7745 4.97577 34.1062 5.14588C34.4379 5.31599 34.9022 5.51918 35.4992 5.75545C36.2194 6.04842 36.7975 6.31303 37.2334 6.5493C37.6693 6.78557 38.0388 7.10689 38.3421 7.51327C38.6548 7.91965 38.8112 8.42053 38.8112 9.01592C38.8112 10.1311 38.3847 10.9911 37.5319 11.5959C36.6885 12.1913 35.5561 12.489 34.1346 12.489Z" fill="white"/>
<path d="M46.2253 9.21438C46.3485 9.21438 46.4432 9.27109 46.5095 9.3845C46.5854 9.4979 46.6233 9.65384 46.6233 9.8523C46.6233 10.2303 46.5332 10.5233 46.3532 10.7312C45.9457 11.2321 45.5003 11.6432 45.017 11.9645C44.5338 12.2858 43.9794 12.4465 43.354 12.4465C41.4208 12.4465 40.4542 11.0903 40.4542 8.378C40.4542 7.96217 40.4685 7.54162 40.4969 7.11634H39.9425C39.6582 7.11634 39.464 7.06436 39.3597 6.9604C39.265 6.85645 39.2176 6.69106 39.2176 6.46424C39.2176 5.93501 39.4308 5.67039 39.8572 5.67039H40.6675C40.8286 4.63082 41.0749 3.68103 41.4066 2.82102C41.7383 1.96101 42.1363 1.27584 42.6006 0.765502C43.0744 0.255167 43.5814 0 44.1215 0C44.5195 0 44.8323 0.174837 45.0597 0.524511C45.2871 0.874185 45.4008 1.31364 45.4008 1.84288C45.4008 3.30773 44.7849 4.58357 43.553 5.67039H45.145C45.2966 5.67039 45.4056 5.70347 45.4719 5.76962C45.5382 5.83578 45.5714 5.95863 45.5714 6.1382C45.5714 6.79029 45.036 7.11634 43.9652 7.11634H42.231C42.2121 7.58887 42.2026 7.95745 42.2026 8.22207C42.2026 9.20493 42.3163 9.89483 42.5438 10.2918C42.7807 10.6887 43.1502 10.8872 43.6525 10.8872C44.0599 10.8872 44.42 10.7643 44.7328 10.5186C45.0455 10.2729 45.415 9.90428 45.8415 9.41285C45.9552 9.28054 46.0831 9.21438 46.2253 9.21438ZM43.7378 1.36089C43.5956 1.36089 43.4345 1.54046 43.2545 1.89958C43.0839 2.24925 42.9181 2.74069 42.757 3.37388C42.6053 3.99763 42.4774 4.69225 42.3732 5.45775C42.9323 4.97577 43.3492 4.43708 43.624 3.84169C43.9083 3.23685 44.0505 2.68871 44.0505 2.19728C44.0505 1.63969 43.9462 1.36089 43.7378 1.36089Z" fill="white"/>
<path d="M46.4751 12.4465C46.115 12.4465 45.8592 12.2575 45.7075 11.8795C45.5654 11.5014 45.4943 10.8966 45.4943 10.0649C45.4943 8.83636 45.6696 7.6692 46.0203 6.56348C46.1055 6.28941 46.243 6.09094 46.4325 5.96809C46.6315 5.83578 46.9063 5.76962 47.2569 5.76962C47.4464 5.76962 47.5791 5.79325 47.6549 5.8405C47.7307 5.88776 47.7686 5.97754 47.7686 6.10985C47.7686 6.26106 47.6976 6.60128 47.5554 7.13052C47.4606 7.50854 47.3848 7.83931 47.328 8.12283C47.2711 8.40635 47.2237 8.75603 47.1858 9.17186C47.4986 8.3591 47.8492 7.69756 48.2377 7.18722C48.6262 6.67688 49.0053 6.31303 49.3748 6.09567C49.7539 5.8783 50.0998 5.76962 50.4125 5.76962C51.0284 5.76962 51.3364 6.07677 51.3364 6.69106C51.3364 6.81392 51.2938 7.11162 51.2085 7.58415C51.1327 7.96217 51.0948 8.19844 51.0948 8.29295C51.0948 8.62372 51.2132 8.7891 51.4501 8.7891C51.7155 8.7891 52.0566 8.58119 52.4736 8.16536C52.5968 8.0425 52.7247 7.98107 52.8574 7.98107C52.9805 7.98107 53.0753 8.03778 53.1416 8.15119C53.2175 8.25514 53.2554 8.3969 53.2554 8.57647C53.2554 8.92614 53.1606 9.20021 52.9711 9.39867C52.7057 9.67274 52.393 9.90901 52.0329 10.1075C51.6823 10.2965 51.308 10.391 50.91 10.391C50.4078 10.391 50.024 10.2634 49.7586 10.0082C49.5028 9.75307 49.3748 9.40812 49.3748 8.97339C49.3748 8.83163 49.3891 8.68987 49.4175 8.54811C49.4364 8.3591 49.4459 8.23152 49.4459 8.16536C49.4459 8.01415 49.3938 7.93855 49.2896 7.93855C49.1474 7.93855 48.9579 8.09921 48.721 8.42053C48.4936 8.7324 48.2661 9.14823 48.0387 9.66802C47.8113 10.1878 47.6265 10.7359 47.4843 11.3124C47.3801 11.7566 47.2569 12.059 47.1148 12.2197C46.9821 12.3709 46.7689 12.4465 46.4751 12.4465Z" fill="white"/>
<path d="M58.2741 9.21438C58.3973 9.21438 58.4921 9.27109 58.5584 9.3845C58.6342 9.4979 58.6721 9.65384 58.6721 9.8523C58.6721 10.2303 58.5821 10.5233 58.402 10.7312C58.0514 11.1565 57.5539 11.5487 56.9095 11.9078C56.2746 12.2669 55.5924 12.4465 54.8627 12.4465C53.8677 12.4465 53.0954 12.1772 52.5457 11.6385C51.9961 11.0998 51.7213 10.3626 51.7213 9.42702C51.7213 8.77493 51.8587 8.17009 52.1335 7.6125C52.4083 7.04546 52.7874 6.59655 53.2707 6.26578C53.7634 5.93501 54.3178 5.76962 54.9338 5.76962C55.4834 5.76962 55.924 5.93501 56.2557 6.26578C56.5874 6.5871 56.7532 7.02656 56.7532 7.58415C56.7532 8.23624 56.5163 8.79856 56.0425 9.27109C55.5781 9.73417 54.7869 10.1027 53.6687 10.3768C53.9056 10.8115 54.3557 11.0289 55.019 11.0289C55.4455 11.0289 55.9288 10.8824 56.4689 10.5895C57.0185 10.287 57.4923 9.89483 57.8903 9.41285C58.004 9.28054 58.132 9.21438 58.2741 9.21438ZM54.6921 7.15887C54.3415 7.15887 54.043 7.36206 53.7966 7.76843C53.5597 8.17481 53.4413 8.66625 53.4413 9.24274V9.27109C54.0003 9.13878 54.441 8.94032 54.7632 8.6757C55.0854 8.41108 55.2465 8.10393 55.2465 7.75426C55.2465 7.5747 55.1944 7.43294 55.0901 7.32898C54.9954 7.21557 54.8627 7.15887 54.6921 7.15887Z" fill="white"/>
<path d="M59.1937 12.4465C58.6062 12.4465 58.1371 12.2339 57.7865 11.8086C57.4359 11.3833 57.2606 10.8257 57.2606 10.1358C57.2606 9.37977 57.4359 8.66625 57.7865 7.99525C58.1371 7.3148 58.6015 6.77139 59.1795 6.36501C59.767 5.94918 60.3877 5.74127 61.0416 5.74127C61.2501 5.74127 61.3875 5.7838 61.4538 5.86885C61.5296 5.94446 61.5912 6.08622 61.6386 6.29413C61.8376 6.25633 62.0461 6.23743 62.264 6.23743C62.7284 6.23743 62.9605 6.40282 62.9605 6.73359C62.9605 6.93205 62.8894 7.40459 62.7473 8.15119C62.5294 9.23801 62.4204 9.99406 62.4204 10.4193C62.4204 10.5611 62.4535 10.6745 62.5199 10.7596C62.5957 10.8446 62.6904 10.8872 62.8042 10.8872C62.9842 10.8872 63.2022 10.7737 63.458 10.5469C63.7139 10.3107 64.0598 9.93263 64.4957 9.41285C64.6094 9.28054 64.7373 9.21438 64.8795 9.21438C65.0026 9.21438 65.0974 9.27109 65.1637 9.3845C65.2395 9.4979 65.2775 9.65384 65.2775 9.8523C65.2775 10.2303 65.1874 10.5233 65.0074 10.7312C64.6189 11.2132 64.2066 11.6196 63.7707 11.9503C63.3348 12.2811 62.9131 12.4465 62.5057 12.4465C62.1929 12.4465 61.9039 12.3426 61.6386 12.1346C61.3827 11.9173 61.1885 11.6243 61.0558 11.2557C60.563 12.0496 59.9423 12.4465 59.1937 12.4465ZM59.7054 11.0147C59.9139 11.0147 60.1129 10.8919 60.3024 10.6462C60.492 10.4004 60.6294 10.0744 60.7147 9.66802L61.2406 7.05964C60.8426 7.06909 60.473 7.2203 60.1319 7.51327C59.8002 7.79679 59.5349 8.17481 59.3359 8.64735C59.1369 9.11988 59.0374 9.62076 59.0374 10.15C59.0374 10.443 59.0942 10.6603 59.2079 10.8021C59.3311 10.9439 59.497 11.0147 59.7054 11.0147Z" fill="white"/>
<path d="M65.1314 12.4465C64.7713 12.4465 64.5155 12.2575 64.3638 11.8795C64.2217 11.5014 64.1506 10.8966 64.1506 10.0649C64.1506 8.83636 64.3259 7.6692 64.6766 6.56348C64.7618 6.28941 64.8993 6.09094 65.0888 5.96809C65.2878 5.83578 65.5626 5.76962 65.9132 5.76962C66.1027 5.76962 66.2354 5.79325 66.3112 5.8405C66.387 5.88776 66.4249 5.97754 66.4249 6.10985C66.4249 6.26106 66.3539 6.60128 66.2117 7.13052C66.1169 7.50854 66.0411 7.83931 65.9843 8.12283C65.9274 8.3969 65.88 8.74185 65.8421 9.15768C66.098 8.42053 66.4012 7.79679 66.7519 7.28645C67.1119 6.77612 67.4768 6.39809 67.8464 6.15237C68.2254 5.89721 68.5808 5.76962 68.9124 5.76962C69.2441 5.76962 69.4763 5.84523 69.6089 5.99644C69.7511 6.14765 69.8221 6.37919 69.8221 6.69106C69.8221 6.99348 69.7321 7.54162 69.5521 8.33547C69.4763 8.6757 69.4241 8.93086 69.3957 9.10098C69.8695 7.93855 70.3955 7.09271 70.9735 6.56348C71.5516 6.03424 72.0917 5.76962 72.5939 5.76962C73.2099 5.76962 73.5179 6.07677 73.5179 6.69106C73.5179 7.05964 73.4136 7.72591 73.2052 8.68987C73.0251 9.51208 72.9351 10.0555 72.9351 10.3201C72.9351 10.6981 73.0725 10.8872 73.3473 10.8872C73.5368 10.8872 73.7595 10.7737 74.0154 10.5469C74.2807 10.3107 74.6313 9.93263 75.0672 9.41285C75.1809 9.28054 75.3089 9.21438 75.451 9.21438C75.5742 9.21438 75.669 9.27109 75.7353 9.3845C75.8111 9.4979 75.849 9.65384 75.849 9.8523C75.849 10.2303 75.759 10.5233 75.5789 10.7312C75.1715 11.2321 74.7308 11.6432 74.257 11.9645C73.7927 12.2858 73.262 12.4465 72.665 12.4465C72.1817 12.4465 71.8169 12.3095 71.5705 12.0354C71.3241 11.7519 71.2009 11.3455 71.2009 10.8163C71.2009 10.5517 71.2673 10.0791 71.3999 9.39867C71.5231 8.80328 71.5847 8.39218 71.5847 8.16536C71.5847 8.01415 71.5326 7.93855 71.4284 7.93855C71.3052 7.93855 71.1299 8.09921 70.9024 8.42053C70.675 8.7324 70.4476 9.14823 70.2201 9.66802C69.9927 10.1878 69.8079 10.7359 69.6658 11.3124C69.5616 11.7661 69.4384 12.0685 69.2962 12.2197C69.1636 12.3709 68.9456 12.4465 68.6424 12.4465C68.3296 12.4465 68.0927 12.3 67.9316 12.0071C67.78 11.7046 67.7042 11.3408 67.7042 10.9155C67.7042 10.5564 67.7516 10.0366 67.8464 9.35614C67.9222 8.7513 67.9601 8.35437 67.9601 8.16536C67.9601 8.01415 67.908 7.93855 67.8037 7.93855C67.6616 7.93855 67.4815 8.10866 67.2636 8.44888C67.0456 8.78911 66.8324 9.22383 66.6239 9.75307C66.4249 10.2823 66.2638 10.8021 66.1406 11.3124C66.0364 11.7566 65.9132 12.059 65.7711 12.2197C65.6384 12.3709 65.4252 12.4465 65.1314 12.4465Z" fill="white"/>
<path d="M81.0392 9.21438C81.1624 9.21438 81.2572 9.27109 81.3235 9.3845C81.3993 9.4979 81.4373 9.65384 81.4373 9.8523C81.4373 10.2303 81.3472 10.5233 81.1672 10.7312C80.8166 11.1565 80.3191 11.5487 79.6747 11.9078C79.0398 12.2669 78.3575 12.4465 77.6278 12.4465C76.6328 12.4465 75.8605 12.1772 75.3109 11.6385C74.7613 11.0998 74.4865 10.3626 74.4865 9.42702C74.4865 8.77493 74.6239 8.17009 74.8987 7.6125C75.1735 7.04546 75.5525 6.59655 76.0358 6.26578C76.5286 5.93501 77.0829 5.76962 77.6989 5.76962C78.2485 5.76962 78.6891 5.93501 79.0208 6.26578C79.3525 6.5871 79.5183 7.02656 79.5183 7.58415C79.5183 8.23624 79.2814 8.79856 78.8076 9.27109C78.3433 9.73417 77.552 10.1027 76.4338 10.3768C76.6707 10.8115 77.1208 11.0289 77.7842 11.0289C78.2106 11.0289 78.6939 10.8824 79.234 10.5895C79.7836 10.287 80.2575 9.89483 80.6555 9.41285C80.7692 9.28054 80.8971 9.21438 81.0392 9.21438ZM77.4572 7.15887C77.1066 7.15887 76.8081 7.36206 76.5617 7.76843C76.3248 8.17481 76.2064 8.66625 76.2064 9.24274V9.27109C76.7655 9.13878 77.2061 8.94032 77.5283 8.6757C77.8505 8.41108 78.0116 8.10393 78.0116 7.75426C78.0116 7.5747 77.9595 7.43294 77.8552 7.32898C77.7605 7.21557 77.6278 7.15887 77.4572 7.15887Z" fill="white"/>
<path d="M86.0225 7.71173C86.231 7.71173 86.4063 7.78734 86.5484 7.93855C86.7 8.08031 86.7758 8.25987 86.7758 8.47723C86.7758 8.60009 86.7474 8.7324 86.6906 8.87416C86.5389 9.22383 86.3257 9.5168 86.0509 9.75307C85.7761 9.98934 85.4729 10.1075 85.1412 10.1075C84.8759 10.1075 84.6484 10.013 84.4589 9.82395C84.2789 9.63494 84.1888 9.37977 84.1888 9.05845C84.1888 8.87889 84.1983 8.68515 84.2173 8.47723C84.2362 8.32602 84.2457 8.22207 84.2457 8.16536C84.2457 8.08976 84.2267 8.03305 84.1888 7.99525C84.1604 7.95745 84.1225 7.93855 84.0751 7.93855C83.9425 7.93855 83.7624 8.09921 83.535 8.42053C83.3075 8.7324 83.0801 9.14823 82.8527 9.66802C82.6253 10.1878 82.4405 10.7359 82.2983 11.3124C82.1941 11.7661 82.0756 12.0685 81.943 12.2197C81.8103 12.3709 81.5923 12.4465 81.2891 12.4465C80.929 12.4465 80.6732 12.2575 80.5215 11.8795C80.3794 11.5014 80.3083 10.8966 80.3083 10.0649C80.3083 8.83636 80.4836 7.6692 80.8343 6.56348C80.9195 6.28941 81.0569 6.09094 81.2465 5.96809C81.4455 5.83578 81.7203 5.76962 82.0709 5.76962C82.2604 5.76962 82.3931 5.79325 82.4689 5.8405C82.5447 5.88776 82.5826 5.97754 82.5826 6.10985C82.5826 6.26106 82.5115 6.60128 82.3694 7.13052C82.2746 7.50854 82.1988 7.83931 82.142 8.12283C82.0851 8.40635 82.0377 8.75603 81.9998 9.17186C82.3125 8.3591 82.6632 7.69756 83.0517 7.18722C83.4402 6.67688 83.8193 6.31303 84.1888 6.09567C84.5584 5.8783 84.8948 5.76962 85.198 5.76962C85.4729 5.76962 85.6813 5.84995 85.8235 6.01061C85.9751 6.16182 86.0509 6.38864 86.0509 6.69106C86.0509 6.87062 85.9988 7.21085 85.8945 7.71173H86.0225Z" fill="white"/>
<path d="M89.6006 12.7584C89.1078 12.7584 88.7288 12.645 88.4635 12.4182C88.2076 12.1913 88.0797 11.9362 88.0797 11.6527C88.0797 11.4069 88.1697 11.1943 88.3497 11.0147C88.5298 10.8352 88.7951 10.7454 89.1457 10.7454C89.2689 10.7454 89.4111 10.7596 89.5722 10.7879C89.7427 10.8068 89.8707 10.821 89.956 10.8304C89.9465 10.5847 89.8896 10.3532 89.7854 10.1358C89.6906 9.91846 89.5674 9.71054 89.4158 9.51208C89.2642 9.30416 89.1221 9.1246 88.9894 8.97339C88.6956 9.53098 88.4019 9.99406 88.1081 10.3626C87.8238 10.7312 87.5111 11.0809 87.17 11.4117C86.9994 11.5818 86.8193 11.6668 86.6298 11.6668C86.4782 11.6668 86.355 11.6149 86.2602 11.5109C86.1655 11.3975 86.1181 11.2605 86.1181 11.0998C86.1181 10.9108 86.1844 10.7359 86.3171 10.5753L86.5019 10.3485C87.0231 9.70582 87.4163 9.17658 87.6817 8.76075C87.8522 8.48668 88.0228 8.16064 88.1934 7.78261C88.3734 7.40458 88.6056 6.88952 88.8899 6.23743C89.0699 5.8216 89.4442 5.61369 90.0128 5.61369C90.2782 5.61369 90.4629 5.63731 90.5672 5.68457C90.6714 5.73182 90.7235 5.80743 90.7235 5.91138C90.7235 5.96809 90.7046 6.05787 90.6667 6.18073C90.6288 6.30358 90.5767 6.42644 90.5103 6.5493C90.3398 6.88952 90.2545 7.17777 90.2545 7.41404C90.2545 7.5558 90.3018 7.71173 90.3966 7.88184C90.5008 8.05195 90.6572 8.26459 90.8657 8.51976C91.1689 8.91669 91.3963 9.25691 91.548 9.54043C91.7091 9.8145 91.7896 10.1169 91.7896 10.4477C91.7896 10.8446 91.6948 11.2226 91.5053 11.5818C91.3253 11.9314 91.0694 12.215 90.7378 12.4323C90.4061 12.6497 90.027 12.7584 89.6006 12.7584Z" fill="white"/>
</svg>
