<svg width="84" height="21" viewBox="0 0 84 21" fill="none" xmlns="http://www.w3.org/2000/svg">
<g clip-path="url(#clip0_1_631)">
<path d="M9.59875 14.5406C9.12442 15.1012 8.5351 15.5324 7.83078 15.8342C7.14084 16.1217 6.35748 16.2654 5.48067 16.2654C4.35952 16.2654 3.38211 16.0427 2.54843 15.5971C1.72912 15.1372 1.09668 14.5046 0.651092 13.6997C0.219879 12.8804 0.00427246 11.9389 0.00427246 10.8753C0.00427246 9.81164 0.227065 8.87733 0.672652 8.07241C1.11824 7.26748 1.75068 6.64222 2.56999 6.19663C3.40367 5.73668 4.3739 5.50669 5.48067 5.50669C6.31436 5.50669 7.09772 5.6648 7.83078 5.98103C8.56384 6.28287 9.16754 6.71409 9.64188 7.27466L7.93859 9.0642C7.59362 8.69048 7.2199 8.42456 6.81743 8.26645C6.42934 8.09397 5.98375 8.00772 5.48067 8.00772C5.00634 8.00772 4.56075 8.12991 4.14391 8.37426C3.72708 8.6186 3.39647 8.96357 3.15213 9.40917C2.90778 9.84038 2.78559 10.3291 2.78559 10.8753C2.78559 11.479 2.90058 11.9964 3.13056 12.4277C3.36055 12.8589 3.67676 13.1895 4.07923 13.4194C4.49607 13.6495 4.96322 13.7644 5.48067 13.7644C5.96939 13.7644 6.43652 13.671 6.88212 13.4841C7.34207 13.2973 7.7086 13.0385 7.98171 12.7079L9.59875 14.5406ZM16.7016 13.635C17.176 13.635 17.6072 13.5272 17.9953 13.3116C18.3978 13.0817 18.7139 12.7511 18.9439 12.3199C19.174 11.8886 19.2889 11.3927 19.2889 10.8322C19.2889 10.2716 19.174 9.78288 18.9439 9.36604C18.7139 8.93483 18.3978 8.61142 17.9953 8.39582C17.6072 8.16583 17.176 8.05085 16.7016 8.05085C16.2417 8.05085 15.8105 8.15865 15.408 8.37426C15.0055 8.58986 14.6821 8.91327 14.4378 9.34448C14.1935 9.76132 14.0712 10.2572 14.0712 10.8322C14.0712 11.4071 14.1935 11.9102 14.4378 12.3414C14.6821 12.7726 15.0055 13.096 15.408 13.3116C15.8105 13.5272 16.2417 13.635 16.7016 13.635ZM16.5292 5.50669C17.0179 5.50669 17.5354 5.61449 18.0815 5.8301C18.6277 6.03133 19.0086 6.27569 19.2242 6.56316L19.1596 5.95946V5.76542H22.0056V15.8989H19.2458V15.7911L19.3105 15.1443C19.0949 15.4606 18.7139 15.712 18.1678 15.8989C17.6359 16.0858 17.0897 16.1792 16.5292 16.1792C15.4655 16.1792 14.5312 15.9492 13.7263 15.4893C12.9357 15.0149 12.3248 14.3753 11.8936 13.5704C11.4624 12.7511 11.2468 11.8383 11.2468 10.8322C11.2468 9.75414 11.4696 8.81265 11.9152 8.00772C12.3751 7.2028 13.0004 6.58472 13.791 6.15351C14.5958 5.7223 15.5087 5.50669 16.5292 5.50669ZM24.3704 15.8989V6.36912C24.9021 6.05289 25.5777 5.8301 26.3971 5.70074C27.2306 5.55699 28.0212 5.48513 28.7687 5.48513C30.7666 5.48513 32.204 5.90916 33.0808 6.75721C33.9576 7.59089 34.4032 8.69048 34.4176 10.056C34.4319 11.9964 34.4319 13.944 34.4176 15.8989H31.6147C31.629 14.1022 31.629 12.3055 31.6147 10.5088C31.6003 9.67508 31.3847 9.0642 30.9679 8.6761C30.551 8.28801 29.9114 8.09397 29.049 8.09397C28.6609 8.09397 28.2871 8.12991 27.9279 8.20177C27.5685 8.25927 27.3097 8.33113 27.1517 8.41738V15.8989H24.3704ZM41.7765 8.05085C41.2878 8.05085 40.8494 8.16583 40.4613 8.39582C40.0732 8.6258 39.7714 8.95639 39.5558 9.38761C39.3402 9.81882 39.2324 10.3075 39.2324 10.8537C39.2324 11.3999 39.3402 11.8886 39.5558 12.3199C39.7714 12.7367 40.0732 13.0601 40.4613 13.2901C40.8494 13.5201 41.2878 13.635 41.7765 13.635C42.294 13.635 42.7539 13.5201 43.1564 13.2901C43.5588 13.0457 43.875 12.7151 44.1051 12.2983C44.335 11.8671 44.45 11.3856 44.45 10.8537C44.45 10.3219 44.335 9.84756 44.1051 9.43073C43.8895 8.99951 43.5732 8.66173 43.1564 8.41738C42.7539 8.17303 42.294 8.05085 41.7765 8.05085ZM41.6903 16.1792C40.5834 16.1792 39.6347 15.9636 38.8443 15.5324C38.0537 15.0868 37.45 14.4688 37.0332 13.6782C36.6163 12.8732 36.4079 11.9318 36.4079 10.8537C36.4079 9.87632 36.6163 8.98514 37.0332 8.18021C37.45 7.36091 38.0537 6.71409 38.8443 6.23975C39.6347 5.75104 40.5834 5.50669 41.6903 5.50669C42.1933 5.50669 42.7252 5.59293 43.2858 5.76542C43.8606 5.9379 44.2487 6.16789 44.45 6.45536L44.4069 5.7223V0.0949707H47.1667V15.8989H44.3207V15.7264L44.3638 15.1443C44.1194 15.4606 43.7241 15.712 43.178 15.8989C42.6461 16.0858 42.1502 16.1792 41.6903 16.1792ZM54.2748 20.6423H51.1916L53.1968 16.0067L48.8631 5.76542H51.9247L54.0808 11.2418L55.1157 14.4975H54.2964L55.3097 11.2418L57.4658 5.76542H60.5488L54.2748 20.6423Z" fill="white"/>
<path d="M65.0747 12.7093V15.9002H61.7759V12.7093H65.0747ZM72.5612 13.6364C73.0355 13.6364 73.4667 13.5286 73.8548 13.313C74.2573 13.083 74.5736 12.7524 74.8035 12.3212C75.0335 11.89 75.1485 11.3941 75.1485 10.8335C75.1485 10.2729 75.0335 9.78421 74.8035 9.36737C74.5736 8.93616 74.2573 8.61275 73.8548 8.39714C73.4667 8.16716 73.0355 8.05217 72.5612 8.05217C72.1013 8.05217 71.6701 8.15998 71.2675 8.37558C70.8652 8.59119 70.5418 8.9146 70.2973 9.34581C70.053 9.76265 69.9308 10.2585 69.9308 10.8335C69.9308 11.4085 70.053 11.9115 70.2973 12.3427C70.5418 12.774 70.8652 13.0974 71.2675 13.313C71.6701 13.5286 72.1013 13.6364 72.5612 13.6364ZM72.3887 5.50802C72.8774 5.50802 73.3949 5.61582 73.9411 5.83143C74.4874 6.03266 74.8682 6.27702 75.0838 6.56449L75.0191 5.96079V5.76675H77.8651V15.9002H75.1053V15.7924L75.17 15.1456C74.9544 15.4619 74.5736 15.7133 74.0273 15.9002C73.4956 16.0871 72.9493 16.1805 72.3887 16.1805C71.3251 16.1805 70.3908 15.9505 69.5858 15.4906C68.7953 15.0163 68.1844 14.3766 67.7532 13.5717C67.3219 12.7524 67.1063 11.8397 67.1063 10.8335C67.1063 9.75546 67.3292 8.81398 67.7747 8.00905C68.2348 7.20413 68.86 6.58605 69.6505 6.15484C70.4555 5.72363 71.3682 5.50802 72.3887 5.50802ZM83.8736 1.06653V4.0419H80.7473V1.06653H83.8736ZM83.8305 15.9002H81.1139V8.18154H79.8849L80.3593 5.76675H83.8305V15.9002Z" fill="url(#paint0_linear_1_631)"/>
</g>
<defs>
<linearGradient id="paint0_linear_1_631" x1="98.2113" y1="6.08005" x2="47.0994" y2="58.0772" gradientUnits="userSpaceOnUse">
<stop stop-color="#FC768A"/>
<stop offset="1" stop-color="#E65073"/>
</linearGradient>
<clipPath id="clip0_1_631">
<rect width="83.9517" height="20.7521" fill="white"/>
</clipPath>
</defs>
</svg>
