<svg width="88" height="44" viewBox="0 0 88 44" fill="none" xmlns="http://www.w3.org/2000/svg">
<g clip-path="url(#clip0_1_576)">
<path d="M5.70264 12.6456C5.68504 6.75847 9.44272 3.50248 16.3508 3.47608C21.3318 3.45848 22.2118 6.71447 22.2206 7.89367C22.2294 10.1641 19.0174 12.5664 19.0174 12.5664C19.0174 12.5664 19.1933 13.9744 21.9478 13.9656C24.7023 13.9568 27.3775 12.1352 27.3599 7.59447C27.3423 2.36729 21.8773 -0.0175032 16.4652 9.66807e-05C11.9507 0.0176966 -0.0438802 0.651294 0.000120737 12.5576C0.0353214 23.1352 19.9853 24.068 20.0117 30.844C20.0381 38.2007 11.7835 40.1807 9.00271 40.1895C6.22185 40.1983 5.07783 38.2007 5.06903 37.1095C5.05143 31.152 10.974 29.4976 10.974 29.4976C10.974 29.0576 10.6307 27.0776 8.3339 27.0776C2.42018 27.0952 0.0705222 32.1816 0.0881227 37.1535C0.105723 41.3775 3.08899 44.0175 7.59469 43.9999C16.21 43.9647 25.9255 39.7671 25.8903 30.4216C25.8551 21.6832 5.72904 19.3952 5.70264 12.6456Z" fill="#F7FAFC"/>
<path d="M87.8356 36.0443C87.7652 35.8771 87.5716 35.9211 87.3164 36.1322C86.3396 36.9418 84.1043 39.221 78.8682 39.2474C69.3375 39.2826 67.6743 23.5659 67.6743 23.5659C67.6743 23.5659 74.9434 18.1363 76.0786 15.9451C77.2138 13.7539 73.5969 13.2699 73.5969 13.2699C73.5969 13.2699 68.5103 19.4563 64.9111 21.2779C65.2983 18.5851 67.9647 12.4515 68.1231 8.92278C68.2991 5.394 63.8902 6.24759 63.1862 6.59079C63.195 8.13079 59.3053 22.1139 57.8885 29.7963C57.0525 31.1251 55.8645 32.6563 54.7997 32.6563C54.1837 32.6563 53.9548 31.5123 53.946 29.8667C53.9372 27.5875 55.1957 23.9443 55.1869 21.7267C55.1781 20.1955 54.4829 20.0987 53.8756 20.1075C53.7436 20.1075 53.0132 20.1251 52.8812 20.1251C51.3324 20.1339 51.834 18.7963 50.4436 18.8051C46.1579 18.8227 40.7018 23.4955 40.4642 30.5619C39.021 31.5211 36.9969 32.7267 35.9585 32.7267C34.8761 32.7267 34.6033 31.7235 34.6033 30.8611C34.5945 29.3387 37.0673 20.2923 37.0673 20.2923C37.0673 20.2923 40.2002 19.4915 41.573 19.2187C42.6114 19.0163 42.893 18.9459 43.3066 18.4443C43.7203 17.9427 44.4947 16.9131 45.1283 15.9803C45.7619 15.0475 45.1371 14.3347 43.9667 14.3347C42.4266 14.3435 38.2993 15.3115 38.2993 15.3115C38.2993 15.3115 40.2882 6.77559 40.2794 6.59959C40.2794 6.42359 40.0506 6.33559 39.725 6.33559C38.977 6.33559 37.6305 6.74039 36.7769 7.04839C35.4657 7.51479 34.3921 9.12518 34.1809 9.87318C33.9697 10.6212 32.4824 16.4907 32.4824 16.4907C32.4824 16.4907 24.5359 19.2363 23.4447 19.6499C23.3743 19.6763 23.3303 19.7379 23.3303 19.8083C23.3303 19.8787 24.2455 23.3547 26.1023 23.3547C27.4487 23.3459 31.3472 21.7531 31.3472 21.7531C31.3472 21.7531 29.332 29.7611 29.3408 32.4275C29.3496 34.1435 30.1504 36.141 33.4857 36.1322C36.6009 36.1235 39.3202 34.5307 40.8426 33.4043C41.6786 35.5163 43.6411 36.0882 44.9875 36.0882C47.9971 36.0794 50.3292 33.6859 50.6196 33.3603C51.0156 34.2843 51.9308 36.0619 54.0341 36.0531C55.2221 36.0531 56.4541 34.7067 57.3693 33.4219C57.3517 33.7387 57.3517 34.0115 57.3781 34.2315C57.7389 37.549 62.667 35.5955 62.931 35.1379C63.0982 32.7443 62.9926 27.8339 63.9518 24.8067C65.2191 35.1379 70.0416 42.081 78.7098 42.0458C83.5587 42.0282 86.0316 40.6378 87.07 39.485C88.2756 38.1562 88.038 36.5282 87.8356 36.0443ZM46.2547 32.6387C42.0922 32.6563 47.5307 21.8587 51.0772 21.8499C51.086 23.2403 51.0068 32.6211 46.2547 32.6387Z" fill="#F7FAFC"/>
<path d="M80.0385 35.9475C83.7961 35.9387 86.709 33.4571 87.237 32.6563C87.9234 31.6091 86.4362 30.0251 85.961 30.0603C84.7729 31.1955 83.5321 32.5683 80.7513 32.5771C77.4776 32.5859 78.2168 28.9779 78.2168 28.9779C78.2168 28.9779 84.5265 29.7963 87.061 25.2555C87.8706 23.8035 87.9058 21.7971 87.5802 20.9347C87.2458 20.0547 85.4242 18.4707 82.5025 18.7171C78.912 19.0163 74.3975 22.7563 73.4031 27.2531C72.6023 30.8611 74.1071 35.9738 80.0385 35.9475ZM84.0425 20.8115C84.6321 20.7939 84.5793 21.7619 84.4209 22.7827C84.2009 24.1643 82.3001 27.6667 78.692 27.5347C78.9384 25.4931 81.6225 20.8995 84.0425 20.8115Z" fill="#F7FAFC"/>
</g>
<defs>
<clipPath id="clip0_1_576">
<rect width="88" height="44" fill="white"/>
</clipPath>
</defs>
</svg>
