<svg width="118" height="31" viewBox="0 0 118 31" fill="none" xmlns="http://www.w3.org/2000/svg">
<g clip-path="url(#clip0_1_617)">
<path d="M21.2033 2.85596H27.5002L17.0943 29.5351H10.4238L0.0179443 2.85596H6.31483L13.7857 23.1322L21.2033 2.85596Z" fill="white"/>
<path d="M51.2404 2.85845H57.0035V29.5376H51.2404V25.6958C49.0702 28.7194 45.9573 30.2313 41.9016 30.2313C38.2373 30.2313 35.1067 28.8795 32.5097 26.176C29.9127 23.437 28.6143 20.111 28.6143 16.198C28.6143 12.2495 29.9127 8.92351 32.5097 6.22003C35.1067 3.51653 38.2373 2.16479 41.9016 2.16479C45.9573 2.16479 49.0702 3.65883 51.2404 6.64688V2.85845ZM36.7789 22.3343C38.3798 23.935 40.3897 24.7354 42.8089 24.7354C45.228 24.7354 47.2381 23.935 48.8389 22.3343C50.4398 20.6979 51.2404 18.6525 51.2404 16.198C51.2404 13.7435 50.4398 11.7159 48.8389 10.1152C47.2381 8.47887 45.228 7.66069 42.8089 7.66069C40.3897 7.66069 38.3798 8.47887 36.7789 10.1152C35.1779 11.7159 34.3775 13.7435 34.3775 16.198C34.3775 18.6525 35.1779 20.6979 36.7789 22.3343Z" fill="white"/>
<path d="M81.8098 2.85596H88.1067L77.7007 29.5351H71.0304L60.6245 2.85596H66.9212L74.3921 23.1322L81.8098 2.85596Z" fill="white"/>
<path d="M95.2508 18.6525C95.6776 20.6801 96.6561 22.2452 98.1858 23.3479C99.7155 24.4152 101.583 24.9487 103.789 24.9487C106.848 24.9487 109.143 23.846 110.673 21.6406L115.422 24.4152C112.79 28.2926 108.894 30.2313 103.736 30.2313C99.3954 30.2313 95.8911 28.9151 93.2231 26.2827C90.5548 23.6149 89.2208 20.2532 89.2208 16.198C89.2208 12.2139 90.537 8.88793 93.1697 6.22003C95.8023 3.51653 99.1819 2.16479 103.309 2.16479C107.222 2.16479 110.424 3.53432 112.914 6.27337C115.44 9.01243 116.703 12.3384 116.703 16.2514C116.703 16.8561 116.632 17.6565 116.49 18.6525H95.2508ZM95.1974 13.957H110.886C110.495 11.7871 109.588 10.1508 108.165 9.048C106.777 7.94528 105.141 7.39391 103.255 7.39391C101.121 7.39391 99.3419 7.98086 97.9191 9.15473C96.496 10.3286 95.5888 11.9294 95.1974 13.957Z" fill="white"/>
</g>
<defs>
<clipPath id="clip0_1_617">
<rect width="117.286" height="30.4074" fill="white"/>
</clipPath>
</defs>
</svg>
