<svg width="203" height="51" viewBox="0 0 203 51" fill="none" xmlns="http://www.w3.org/2000/svg">
<path d="M82.3764 19.4457L84.0694 17.6561V25.0445L83.2229 23.9804H89.8012V26.8826H83.2229L84.0694 25.8184V33.2673L82.3764 31.4777H91.1434V34.3798H80.2966V16.5436H91.1434V19.4457H82.3764ZM97.7534 34.3798H94.0894V16.5436H99.9179L105.892 33.0255L105.263 33.1827V16.5436H108.915V34.3798H103.05L97.0762 17.9463L97.7534 17.7891V34.3798ZM119.02 34.67C117.61 34.67 116.324 34.3194 115.163 33.618C114.01 32.9086 113.091 31.8767 112.406 30.5224C111.729 29.1599 111.39 27.4872 111.39 25.504C111.39 23.5289 111.749 21.8562 112.466 20.4857C113.184 19.1152 114.147 18.0712 115.356 17.3538C116.574 16.6363 117.932 16.2775 119.431 16.2775C120.681 16.2775 121.737 16.4791 122.6 16.8822C123.47 17.2852 124.176 17.8012 124.716 18.43C125.264 19.0588 125.663 19.7239 125.913 20.4252C126.163 21.1185 126.288 21.7594 126.288 22.3479C126.288 22.3721 126.288 22.3963 126.288 22.4205C126.288 22.4447 126.288 22.4688 126.288 22.493H122.636C122.636 22.4688 122.636 22.4447 122.636 22.4205C122.636 22.3963 122.636 22.3721 122.636 22.3479C122.636 21.9771 122.567 21.6103 122.43 21.2475C122.293 20.8767 122.088 20.5462 121.814 20.2559C121.548 19.9657 121.213 19.7319 120.81 19.5546C120.415 19.3772 119.955 19.2885 119.431 19.2885C118.722 19.2885 118.045 19.4901 117.4 19.8932C116.755 20.2962 116.227 20.9533 115.816 21.8642C115.405 22.7671 115.199 23.9804 115.199 25.504C115.199 26.6649 115.312 27.6403 115.538 28.4304C115.771 29.2204 116.082 29.8532 116.469 30.3289C116.856 30.7965 117.295 31.135 117.787 31.3446C118.287 31.5542 118.803 31.659 119.335 31.659C120.068 31.659 120.681 31.5381 121.173 31.2963C121.673 31.0464 122.064 30.74 122.346 30.3772C122.628 30.0145 122.809 29.6557 122.89 29.301V28.1402H119.359V25.4315H126.215V34.3798H124.244L123.906 32.4088C123.841 32.5619 123.704 32.7635 123.494 33.0134C123.285 33.2633 122.987 33.5172 122.6 33.7752C122.221 34.0251 121.733 34.2347 121.136 34.404C120.548 34.5814 119.843 34.67 119.02 34.67ZM127.667 34.3798L132.117 16.5194H138.054L142.48 34.3798H138.635L135.08 18.8049H135.104L131.512 34.3798H127.667ZM130.859 30.2442V27.3179H139.324V30.2442H130.859ZM151.023 34.67C149.612 34.67 148.326 34.3194 147.165 33.618C146.012 32.9086 145.093 31.8767 144.408 30.5224C143.731 29.1599 143.392 27.4872 143.392 25.504C143.392 23.5289 143.751 21.8562 144.468 20.4857C145.186 19.1152 146.149 18.0712 147.359 17.3538C148.576 16.6363 149.934 16.2775 151.434 16.2775C152.683 16.2775 153.739 16.4791 154.602 16.8822C155.473 17.2852 156.178 17.8012 156.718 18.43C157.266 19.0588 157.665 19.7239 157.915 20.4252C158.165 21.1185 158.29 21.7594 158.29 22.3479C158.29 22.3721 158.29 22.3963 158.29 22.4205C158.29 22.4447 158.29 22.4688 158.29 22.493H154.638C154.638 22.4688 154.638 22.4447 154.638 22.4205C154.638 22.3963 154.638 22.3721 154.638 22.3479C154.638 21.9771 154.57 21.6103 154.433 21.2475C154.296 20.8767 154.09 20.5462 153.816 20.2559C153.55 19.9657 153.215 19.7319 152.812 19.5546C152.417 19.3772 151.958 19.2885 151.434 19.2885C150.724 19.2885 150.047 19.4901 149.402 19.8932C148.757 20.2962 148.229 20.9533 147.818 21.8642C147.407 22.7671 147.201 23.9804 147.201 25.504C147.201 26.6649 147.314 27.6403 147.54 28.4304C147.774 29.2204 148.084 29.8532 148.471 30.3289C148.858 30.7965 149.297 31.135 149.789 31.3446C150.289 31.5542 150.805 31.659 151.337 31.659C152.071 31.659 152.683 31.5381 153.175 31.2963C153.675 31.0464 154.066 30.74 154.348 30.3772C154.63 30.0145 154.811 29.6557 154.892 29.301V28.1402H151.361V25.4315H158.218V34.3798H156.246L155.908 32.4088C155.843 32.5619 155.706 32.7635 155.497 33.0134C155.287 33.2633 154.989 33.5172 154.602 33.7752C154.223 34.0251 153.735 34.2347 153.139 34.404C152.55 34.5814 151.845 34.67 151.023 34.67ZM163.315 19.4457L165.008 17.6561V25.0445L164.161 23.9804H170.74V26.8826H164.161L165.008 25.8184V33.2673L163.315 31.4777H172.082V34.3798H161.235V16.5436H172.082V19.4457H163.315Z" fill="black"/>
<rect x="3.47116" y="3.47116" width="196.058" height="44.0577" rx="22.0288" stroke="url(#paint0_linear_4012_12)" stroke-width="6.94232"/>
<path d="M68.5966 14.8667C68.7291 14.5062 68.7886 14.1098 68.7132 13.7282C68.6381 13.3468 68.4379 13.0142 68.1416 12.7922C67.8452 12.5703 67.4697 12.4716 67.0826 12.5067C66.6952 12.5417 66.3316 12.7102 66.0228 12.9387C66.0228 12.9387 66.0228 12.9387 66.0228 12.9387C65.0131 13.6905 64.0321 14.4638 63.0796 15.2585C59.2698 18.4372 55.9176 21.9587 53.0229 25.8229C51.6448 27.6627 50.2782 29.5111 48.9231 31.3681L55.7487 31.4102C52.4961 27.0699 49.1788 22.7768 45.7967 18.5311C44.1946 16.1383 41.3469 16.3063 39.6076 18.6013C36.7441 23.1099 33.9443 27.6628 31.2082 32.2601L35.6909 31.9295C32.8598 29.3204 29.9995 26.7389 27.1099 24.1849C26.2016 23.3822 25.2905 22.5821 24.3765 21.7848C24.0688 21.5169 23.6747 21.3532 23.2613 21.3481C22.848 21.3429 22.4521 21.4941 22.1565 21.7723C21.8609 22.0506 21.6861 22.4366 21.6663 22.8494C21.6463 23.2624 21.7858 23.6657 22.0347 23.989C22.0347 23.989 22.0347 23.989 22.0347 23.989C22.7752 24.9495 23.5187 25.9074 24.265 26.8625C26.6396 29.9014 29.0433 32.9126 31.4764 35.8963C32.934 37.2414 34.9436 37.2695 35.9591 35.5657C39.3186 31.4023 42.6145 27.1946 45.8467 22.9425L39.6576 23.0127C42.671 27.5276 45.7491 31.9953 48.892 36.4157C50.7684 38.9212 53.8717 38.9857 55.7176 36.4578C57.1188 34.6353 58.5084 32.8041 59.8866 30.9644C62.7812 27.1001 65.2183 22.8931 67.1978 18.3433C67.6927 17.2059 68.159 16.047 68.5966 14.8667Z" fill="url(#paint1_linear_4012_12)"/>
<defs>
<linearGradient id="paint0_linear_4012_12" x1="101.5" y1="0" x2="101.5" y2="51" gradientUnits="userSpaceOnUse">
<stop stop-color="#3872D5"/>
<stop offset="1" stop-color="#51C3D3"/>
</linearGradient>
<linearGradient id="paint1_linear_4012_12" x1="45.2576" y1="13.9027" x2="45.2576" y2="33.9129" gradientUnits="userSpaceOnUse">
<stop stop-color="#3872D5"/>
<stop offset="1" stop-color="#51C3D3"/>
</linearGradient>
</defs>
</svg>
