<svg width="341" height="72" viewBox="0 0 341 72" fill="none" xmlns="http://www.w3.org/2000/svg">
<path d="M113.801 26.6171L116.14 24.1447V34.3516L114.97 32.8815H124.058V36.8908H114.97L116.14 35.4207V45.7112L113.801 43.2388H125.912V47.248H110.928V22.6078H125.912V26.6171H113.801ZM136.898 32.9651L136.865 37.1581L128.88 22.6078H134.71L140.039 33.7001H137.984L143.263 22.6078H149.093L141.191 37.1581L141.158 32.9651L149.343 47.248H143.497L137.9 36.4231H140.105L134.509 47.248H128.679L136.898 32.9651ZM170.244 38.2439C170.244 39.3131 170.038 40.3989 169.626 41.5014C169.225 42.604 168.612 43.6174 167.788 44.5418C166.975 45.4662 165.939 46.2179 164.681 46.797C163.434 47.365 161.952 47.649 160.237 47.649C157.954 47.649 156.005 47.1088 154.391 46.0286C152.776 44.9372 151.539 43.4337 150.682 41.5182C149.836 39.6026 149.412 37.4031 149.412 34.9196C149.412 32.4361 149.836 30.2421 150.682 28.3377C151.539 26.4333 152.776 24.941 154.391 23.8607C156.005 22.7805 157.954 22.2403 160.237 22.2403C162.142 22.2403 163.762 22.5856 165.099 23.276C166.446 23.9665 167.521 24.863 168.323 25.9656C169.136 27.0681 169.687 28.2319 169.976 29.457C170.155 30.2031 170.244 30.9215 170.244 31.612H165.048C165.048 31.2778 165.021 30.9549 164.965 30.643C164.854 29.8301 164.597 29.1062 164.196 28.4714C163.796 27.8366 163.261 27.3354 162.593 26.9679C161.936 26.5892 161.151 26.3999 160.237 26.3999C159.168 26.3999 158.216 26.7062 157.381 27.3187C156.545 27.9312 155.888 28.8667 155.41 30.1252C154.931 31.3836 154.691 32.9818 154.691 34.9196C154.691 36.8685 154.931 38.4778 155.41 39.7474C155.888 41.0059 156.545 41.9469 157.381 42.5706C158.216 43.1831 159.168 43.4894 160.237 43.4894C161.006 43.4894 161.685 43.3502 162.275 43.0717C162.877 42.7933 163.378 42.4091 163.779 41.9191C164.191 41.4291 164.503 40.8666 164.714 40.2319C164.937 39.5971 165.048 38.9344 165.048 38.2439H170.244ZM192.949 22.6078V47.248H187.753V35.4207L190.092 36.991H176.494L178.833 35.4876V47.248H173.638V22.6078H178.833V34.5187L176.494 32.9651H190.092L187.753 34.5187V22.6078H192.949ZM195.814 47.248L201.962 22.5744H210.164L216.278 47.248H210.966L206.055 25.7317H206.088L201.127 47.248H195.814ZM200.224 41.5349V37.4922H211.918V41.5349H200.224ZM224.214 47.248H219.153V22.6078H227.205L235.457 45.3771L234.588 45.5942V22.6078H239.633V47.248H231.531L223.279 24.5456L224.214 24.3285V47.248ZM253.594 47.649C251.645 47.649 249.869 47.1645 248.265 46.1956C246.672 45.2156 245.403 43.7901 244.456 41.9191C243.521 40.037 243.053 37.7261 243.053 34.9864C243.053 32.2579 243.549 29.947 244.54 28.0537C245.531 26.1605 246.862 24.7183 248.532 23.7271C250.214 22.7359 252.091 22.2403 254.162 22.2403C255.888 22.2403 257.347 22.5187 258.539 23.0756C259.742 23.6324 260.716 24.3452 261.462 25.2138C262.219 26.0825 262.771 27.0013 263.116 27.9702C263.461 28.928 263.634 29.8134 263.634 30.6263C263.634 30.6598 263.634 30.6932 263.634 30.7266C263.634 30.76 263.634 30.7934 263.634 30.8268H258.589C258.589 30.7934 258.589 30.76 258.589 30.7266C258.589 30.6932 258.589 30.6598 258.589 30.6263C258.589 30.1141 258.494 29.6073 258.305 29.1062C258.116 28.5939 257.832 28.1373 257.453 27.7363C257.085 27.3354 256.623 27.0124 256.066 26.7674C255.521 26.5224 254.886 26.3999 254.162 26.3999C253.182 26.3999 252.246 26.6783 251.355 27.2352C250.465 27.792 249.735 28.6997 249.167 29.9581C248.599 31.2055 248.315 32.8815 248.315 34.9864C248.315 36.5901 248.471 37.9377 248.783 39.0291C249.106 40.1205 249.535 40.9947 250.069 41.6518C250.604 42.2977 251.211 42.7655 251.89 43.055C252.581 43.3446 253.293 43.4894 254.028 43.4894C255.042 43.4894 255.888 43.3223 256.568 42.9882C257.258 42.643 257.798 42.2198 258.188 41.7186C258.578 41.2175 258.828 40.7219 258.94 40.2319V38.6281H254.062V34.8862H263.534V47.248H260.811L260.343 44.5251C260.254 44.7367 260.064 45.0151 259.775 45.3604C259.485 45.7056 259.073 46.0564 258.539 46.4128C258.015 46.758 257.342 47.0476 256.517 47.2815C255.704 47.5265 254.73 47.649 253.594 47.649ZM270.576 26.6171L272.914 24.1447V34.3516L271.745 32.8815H280.833V36.8908H271.745L272.914 35.4207V45.7112L270.576 43.2388H282.687V47.248H267.702V22.6078H282.687V26.6171H270.576Z" fill="black"/>
<path d="M35.8535 4.79492H304.503C321.656 4.79504 335.561 18.7006 335.562 35.8535C335.562 53.0066 321.656 66.912 304.503 66.9121H35.8535C18.7005 66.9119 4.79492 53.0066 4.79492 35.8535C4.79509 18.7006 18.7006 4.79509 35.8535 4.79492Z" stroke="url(#paint0_linear_137_26)" stroke-width="9.5906"/>
<path d="M94.765 20.5398C94.9479 20.0416 95.0302 19.4941 94.926 18.967C94.8222 18.4401 94.5456 17.9806 94.1363 17.6739C93.7269 17.3673 93.2082 17.231 92.6733 17.2795C92.1382 17.3278 91.6359 17.5606 91.2092 17.8762C91.2092 17.8762 91.2092 17.8762 91.2092 17.8762C89.8144 18.9149 88.4591 19.9831 87.1434 21.0809C81.8802 25.4722 77.2492 30.3371 73.2504 35.6754C71.3465 38.217 69.4586 40.7705 67.5866 43.3359L77.0159 43.394C72.5226 37.398 67.9397 31.4673 63.2675 25.602C61.0543 22.2964 57.1202 22.5284 54.7175 25.699C50.7616 31.9275 46.8938 38.2172 43.114 44.5682L49.3067 44.1115C45.3956 40.5071 41.4442 36.9408 37.4523 33.4125C36.1975 32.3036 34.9388 31.1983 33.6761 30.0969C33.2512 29.7267 32.7067 29.5006 32.1356 29.4936C31.5647 29.4864 31.0178 29.6953 30.6094 30.0797C30.201 30.4641 29.9594 30.9973 29.9321 31.5676C29.9045 32.1381 30.0973 32.6953 30.4411 33.1419C30.4411 33.1419 30.4411 33.1419 30.4411 33.1419C31.4641 34.4689 32.4912 35.7921 33.5222 37.1116C36.8025 41.3096 40.1233 45.4696 43.4845 49.5915C45.4981 51.4496 48.2744 51.4885 49.6772 49.1348C54.3183 43.3832 58.8715 37.5703 63.3366 31.6962L54.7866 31.7932C58.9495 38.0304 63.2018 44.2023 67.5436 50.309C70.1357 53.7702 74.4229 53.8594 76.973 50.3671C78.9087 47.8494 80.8284 45.3197 82.7323 42.7782C86.7312 37.4398 90.0979 31.628 92.8325 25.3426C93.5162 23.7713 94.1603 22.1703 94.765 20.5398Z" fill="url(#paint1_linear_137_26)"/>
<defs>
<linearGradient id="paint0_linear_137_26" x1="160.678" y1="0" x2="160.678" y2="71.7077" gradientUnits="userSpaceOnUse">
<stop stop-color="#3872D5"/>
<stop offset="1" stop-color="#51C3D3"/>
</linearGradient>
<linearGradient id="paint1_linear_137_26" x1="62.5228" y1="19.208" x2="62.5228" y2="46.8515" gradientUnits="userSpaceOnUse">
<stop stop-color="#3872D5"/>
<stop offset="1" stop-color="#51C3D3"/>
</linearGradient>
</defs>
</svg>
