<svg width="341" height="72" viewBox="0 0 341 72" fill="none" xmlns="http://www.w3.org/2000/svg">
<path d="M110.928 47.248V22.6078H120.917C123.501 22.6078 125.428 23.1981 126.697 24.3786C127.978 25.548 128.619 27.2352 128.619 29.4403C128.619 30.7099 128.374 31.7957 127.883 32.6978C127.405 33.5887 126.809 34.2792 126.096 34.7692C125.394 35.2593 124.715 35.5321 124.058 35.5878C124.737 35.6323 125.378 35.805 125.979 36.1057C126.592 36.3952 127.093 36.8574 127.483 37.4922C127.872 38.127 128.067 38.979 128.067 40.0481C128.067 40.8388 128.067 41.6184 128.067 42.3868C128.067 43.1553 128.067 43.9404 128.067 44.7423C128.067 45.288 128.106 45.7947 128.184 46.2624C128.273 46.719 128.401 47.0476 128.568 47.248H123.373C123.228 47.0253 123.111 46.6912 123.022 46.2457C122.933 45.7891 122.889 45.288 122.889 44.7423C122.889 44.0295 122.889 43.3502 122.889 42.7042C122.889 42.0472 122.889 41.3622 122.889 40.6495C122.889 39.6806 122.638 38.9344 122.137 38.411C121.636 37.8764 120.834 37.6091 119.731 37.6091H114.62L116.006 35.9553V47.248H110.928ZM116.006 35.4876L114.62 33.5999H119.798C120.466 33.5999 121.062 33.4495 121.586 33.1488C122.109 32.8481 122.521 32.4194 122.822 31.8625C123.134 31.3057 123.29 30.6542 123.29 29.908C123.29 28.8612 122.972 28.0482 122.337 27.4691C121.714 26.8899 120.834 26.6004 119.698 26.6004H114.503L116.006 24.9132V35.4876ZM135.107 26.6171L137.445 24.1447V34.3516L136.276 32.8815H145.364V36.8908H136.276L137.445 35.4207V45.7112L135.107 43.2388H147.218V47.248H132.233V22.6078H147.218V26.6171H135.107ZM149.614 47.248L155.761 22.5744H163.964L170.078 47.248H164.766L159.854 25.7317H159.888L154.926 47.248H149.614ZM154.024 41.5349V37.4922H165.718V41.5349H154.024ZM192.169 38.2439C192.169 39.3131 191.963 40.3989 191.551 41.5014C191.15 42.604 190.538 43.6174 189.714 44.5418C188.901 45.4662 187.865 46.2179 186.607 46.797C185.359 47.365 183.878 47.649 182.163 47.649C179.88 47.649 177.931 47.1088 176.316 46.0286C174.701 44.9372 173.465 43.4337 172.608 41.5182C171.761 39.6026 171.338 37.4031 171.338 34.9196C171.338 32.4361 171.761 30.2421 172.608 28.3377C173.465 26.4333 174.701 24.941 176.316 23.8607C177.931 22.7805 179.88 22.2403 182.163 22.2403C184.067 22.2403 185.688 22.5856 187.024 23.276C188.372 23.9665 189.446 24.863 190.248 25.9656C191.061 27.0681 191.613 28.2319 191.902 29.457C192.08 30.2031 192.169 30.9215 192.169 31.612H186.974C186.974 31.2778 186.946 30.9549 186.891 30.643C186.779 29.8301 186.523 29.1062 186.122 28.4714C185.721 27.8366 185.187 27.3354 184.518 26.9679C183.861 26.5892 183.076 26.3999 182.163 26.3999C181.094 26.3999 180.142 26.7062 179.306 27.3187C178.471 27.9312 177.814 28.8667 177.335 30.1252C176.856 31.3836 176.617 32.9818 176.617 34.9196C176.617 36.8685 176.856 38.4778 177.335 39.7474C177.814 41.0059 178.471 41.9469 179.306 42.5706C180.142 43.1831 181.094 43.4894 182.163 43.4894C182.931 43.4894 183.611 43.3502 184.201 43.0717C184.802 42.7933 185.304 42.4091 185.704 41.9191C186.117 41.4291 186.428 40.8666 186.64 40.2319C186.863 39.5971 186.974 38.9344 186.974 38.2439H192.169ZM210.319 26.6171H202.183L204.255 24.1447V47.248H199.093V24.1447L201.231 26.6171H193.046V22.6078H210.319V26.6171ZM213.476 47.248V22.6078H218.587V47.248H213.476ZM227.524 47.2982L221.427 22.6078H227.157L231.5 44.0908H231.266L235.576 22.6078H241.323L235.275 47.2982H227.524ZM241.003 47.248L247.151 22.5744H255.353L261.467 47.248H256.155L251.244 25.7317H251.277L246.315 47.248H241.003ZM245.413 41.5349V37.4922H257.107V41.5349H245.413ZM278.086 26.6171H269.951L272.022 24.1447V47.248H266.86V24.1447L268.998 26.6171H260.813V22.6078H278.086V26.6171ZM284.116 26.6171L286.455 24.1447V34.3516L285.285 32.8815H294.373V36.8908H285.285L286.455 35.4207V45.7112L284.116 43.2388H296.227V47.248H281.243V22.6078H296.227V26.6171H284.116Z" fill="black"/>
<path d="M35.8535 4.79492H304.503C321.656 4.79504 335.561 18.7006 335.562 35.8535C335.562 53.0066 321.656 66.912 304.503 66.9121H35.8535C18.7005 66.9119 4.79492 53.0066 4.79492 35.8535C4.79509 18.7006 18.7006 4.79509 35.8535 4.79492Z" stroke="url(#paint0_linear_132_26)" stroke-width="9.5906"/>
<path d="M94.765 20.5398C94.9479 20.0416 95.0302 19.4941 94.926 18.967C94.8222 18.4401 94.5456 17.9806 94.1363 17.6739C93.7269 17.3673 93.2082 17.231 92.6733 17.2795C92.1382 17.3278 91.6359 17.5606 91.2092 17.8762C91.2092 17.8762 91.2092 17.8762 91.2092 17.8762C89.8144 18.9149 88.4591 19.9831 87.1434 21.0809C81.8802 25.4722 77.2492 30.3371 73.2504 35.6754C71.3465 38.217 69.4586 40.7705 67.5866 43.3359L77.0159 43.394C72.5226 37.398 67.9397 31.4673 63.2675 25.602C61.0543 22.2964 57.1202 22.5284 54.7175 25.699C50.7616 31.9275 46.8938 38.2172 43.114 44.5682L49.3067 44.1115C45.3956 40.5071 41.4442 36.9408 37.4523 33.4125C36.1975 32.3036 34.9388 31.1983 33.6761 30.0969C33.2512 29.7267 32.7067 29.5006 32.1356 29.4936C31.5647 29.4864 31.0178 29.6953 30.6094 30.0797C30.201 30.4641 29.9594 30.9973 29.9321 31.5676C29.9045 32.1381 30.0973 32.6953 30.4411 33.1419C30.4411 33.1419 30.4411 33.1419 30.4411 33.1419C31.4641 34.4689 32.4912 35.7921 33.5222 37.1116C36.8025 41.3096 40.1233 45.4696 43.4845 49.5915C45.4981 51.4496 48.2744 51.4885 49.6772 49.1348C54.3183 43.3832 58.8715 37.5703 63.3366 31.6962L54.7866 31.7932C58.9495 38.0304 63.2018 44.2023 67.5436 50.309C70.1357 53.7702 74.4229 53.8594 76.973 50.3671C78.9087 47.8494 80.8284 45.3197 82.7323 42.7782C86.7312 37.4398 90.0979 31.628 92.8325 25.3426C93.5162 23.7713 94.1603 22.1703 94.765 20.5398Z" fill="url(#paint1_linear_132_26)"/>
<defs>
<linearGradient id="paint0_linear_132_26" x1="160.678" y1="0" x2="160.678" y2="71.7077" gradientUnits="userSpaceOnUse">
<stop stop-color="#3872D5"/>
<stop offset="1" stop-color="#51C3D3"/>
</linearGradient>
<linearGradient id="paint1_linear_132_26" x1="62.5228" y1="19.208" x2="62.5228" y2="46.8515" gradientUnits="userSpaceOnUse">
<stop stop-color="#3872D5"/>
<stop offset="1" stop-color="#51C3D3"/>
</linearGradient>
</defs>
</svg>
