<svg width="165" height="41" viewBox="0 0 165 41" fill="none" xmlns="http://www.w3.org/2000/svg">
<path d="M66.9018 31L62.5087 9.98406H66.981L71.3939 29.2586L70.3847 29.2981L73.1354 9.98406H79.4678L75.2726 31H66.9018ZM52.2975 31L48.1023 9.98406H54.4347L57.1854 29.2981L56.196 29.2586L60.5693 9.98406H65.0417L60.6881 31H52.2975ZM82.1527 31V9.98406H88.2279V31H82.1527ZM85.1804 6.56056C84.2305 6.56056 83.3994 6.3099 82.687 5.80858C81.9877 5.30726 81.6381 4.60145 81.6381 3.69115C81.6381 2.76767 81.9877 2.05526 82.687 1.55394C83.3994 1.05262 84.2305 0.801957 85.1804 0.801957C86.1434 0.801957 86.9746 1.05262 87.6738 1.55394C88.3862 2.05526 88.7424 2.76767 88.7424 3.69115C88.7424 4.61464 88.3862 5.32705 87.6738 5.82837C86.9746 6.3165 86.1434 6.56056 85.1804 6.56056ZM101.535 31.4749C99.7801 31.4749 98.164 31.0594 96.6865 30.2282C95.2089 29.3839 94.0215 28.1372 93.1244 26.4881C92.2273 24.839 91.7788 22.8073 91.7788 20.3931C91.7788 18.0844 92.2339 16.1253 93.1442 14.5157C94.0677 12.9062 95.2682 11.6859 96.7458 10.8548C98.2366 10.0104 99.8329 9.58828 101.535 9.58828C103.197 9.58828 104.714 10.0104 106.086 10.8548C107.471 11.6991 108.58 12.8535 109.411 14.3179C110.242 15.7691 110.658 17.4445 110.658 19.3443C110.658 19.4102 110.658 19.4762 110.658 19.5422C110.658 19.5949 110.658 19.6543 110.658 19.7203L108.006 19.7598C108.006 19.7203 108.006 19.6807 108.006 19.6411C108.006 19.5883 108.006 19.5422 108.006 19.5026C108.006 18.5131 107.768 17.6622 107.293 16.9498C106.818 16.2374 106.205 15.6899 105.453 15.3073C104.701 14.9115 103.916 14.7136 103.098 14.7136C101.739 14.7136 100.565 15.1688 99.5757 16.0791C98.5862 16.9762 98.0915 18.4142 98.0915 20.3931C98.0915 22.372 98.5862 23.8298 99.5757 24.7665C100.578 25.6899 101.752 26.1517 103.098 26.1517C103.942 26.1517 104.741 25.9538 105.493 25.558C106.245 25.149 106.851 24.5752 107.313 23.8364C107.775 23.0976 108.006 22.2269 108.006 21.2242L110.658 21.3627C110.658 23.2493 110.249 24.9578 109.431 26.4881C108.626 28.0053 107.531 29.219 106.146 30.1293C104.774 31.0264 103.237 31.4749 101.535 31.4749ZM108.006 31V0.0697622H114.16V31H108.006ZM133.343 28.5066C134.636 28.6385 135.764 28.8892 136.727 29.2586C137.703 29.6148 138.462 30.1491 139.002 30.8615C139.543 31.5607 139.814 32.4974 139.814 33.6715C139.814 35.0304 139.365 36.1847 138.468 37.1346C137.584 38.0977 136.285 38.8299 134.57 39.3312C132.855 39.8325 130.777 40.0832 128.336 40.0832C124.735 40.0832 121.944 39.562 119.965 38.5198C118 37.4908 117.017 36.1122 117.017 34.3839C117.017 33.8958 117.07 33.4538 117.175 33.0581C117.294 32.6755 117.439 32.3457 117.611 32.0686L123.191 32.88C123.125 32.9723 123.053 33.1108 122.973 33.2955C122.907 33.4934 122.874 33.7375 122.874 34.0277C122.874 34.7269 123.396 35.248 124.438 35.5911C125.493 35.9341 126.852 36.1056 128.514 36.1056C129.688 36.1056 130.691 36.0198 131.522 35.8483C132.367 35.69 133.006 35.4525 133.442 35.1359C133.89 34.8193 134.115 34.4565 134.115 34.0475C134.115 33.4538 133.824 33.0647 133.244 32.88C132.677 32.6953 132.017 32.5633 131.265 32.4842L123.31 31.6728C121.845 31.5277 120.632 31.1055 119.669 30.4063C118.706 29.7071 118.224 28.7638 118.224 27.5765C118.224 26.8377 118.429 26.1649 118.837 25.558C119.246 24.938 119.715 24.43 120.243 24.0343C120.77 23.6253 121.212 23.368 121.568 23.2625L124.695 24.8456C124.444 24.8852 124.148 25.0435 123.805 25.3206C123.475 25.5976 123.31 25.9208 123.31 26.2902C123.31 26.6596 123.494 26.9762 123.864 27.2401C124.246 27.5039 124.939 27.682 125.942 27.7744L133.343 28.5066ZM135.421 9.98406H140.823L138.626 18.058C138.218 19.5883 137.611 20.9538 136.806 22.1543C136.001 23.3416 134.926 24.2783 133.58 24.9643C132.248 25.6504 130.566 25.9934 128.534 25.9934C126.397 25.9934 124.543 25.6636 122.973 25.0039C121.417 24.3443 120.216 23.4142 119.372 22.2137C118.527 20.9999 118.105 19.5685 118.105 17.9195C118.105 16.2704 118.534 14.8192 119.392 13.5659C120.262 12.3126 121.443 11.3363 122.934 10.6371C124.438 9.93789 126.14 9.58828 128.039 9.58828C129.477 9.58828 130.79 9.82575 131.977 10.3007C133.178 10.7624 134.141 11.3759 134.867 12.1411C135.605 12.9062 135.988 13.7506 136.014 14.6741L134.886 14.9709L135.421 9.98406ZM128.495 21.5013C129.365 21.5013 130.13 21.3627 130.79 21.0857C131.45 20.7955 131.964 20.3799 132.334 19.839C132.703 19.2849 132.888 18.6187 132.888 17.8403C132.888 17.0751 132.703 16.4221 132.334 15.8812C131.964 15.3403 131.45 14.9247 130.79 14.6345C130.13 14.3442 129.365 14.1991 128.495 14.1991C127.663 14.1991 126.911 14.3508 126.239 14.6543C125.579 14.9445 125.058 15.3667 124.675 15.9208C124.293 16.4617 124.101 17.1213 124.101 17.8997C124.101 18.6648 124.286 19.3179 124.655 19.8588C125.025 20.3865 125.539 20.7955 126.199 21.0857C126.859 21.3627 127.624 21.5013 128.495 21.5013ZM145.547 40.0832C144.887 40.0832 144.294 40.0568 143.766 40.004C143.252 39.9644 142.928 39.9183 142.796 39.8655V35.2151C142.968 35.2942 143.265 35.3536 143.687 35.3932C144.122 35.4459 144.584 35.4723 145.072 35.4723C145.719 35.4723 146.299 35.3404 146.814 35.0765C147.341 34.8259 147.79 34.4631 148.159 33.9881C148.542 33.5264 148.839 32.9789 149.05 32.3457L149.406 31.277L142.163 9.98406H148.555L153.126 27.2203H152.414L156.807 9.98406H163.12L155.897 32.0488C155.356 33.7111 154.69 35.1425 153.898 36.343C153.106 37.5436 152.051 38.4671 150.732 39.1135C149.413 39.7599 147.684 40.0832 145.547 40.0832Z" fill="white"/>
<rect x="1.80557" y="2.12905" width="35.2617" height="35.2617" rx="17.6308" stroke="url(#paint0_linear_118_151)" stroke-width="3.61114"/>
<path d="M31.683 15.0569C31.7519 14.8693 31.7829 14.6632 31.7437 14.4647C31.7046 14.2663 31.6004 14.0933 31.4463 13.9778C31.2922 13.8623 31.0968 13.811 30.8955 13.8293C30.694 13.8475 30.5048 13.9351 30.3442 14.054C30.3442 14.054 30.3442 14.054 30.3442 14.054C29.819 14.445 29.3087 14.8473 28.8133 15.2606C26.8315 16.9141 25.0878 18.7458 23.5822 20.7559C22.8653 21.7128 22.1544 22.6743 21.4496 23.6403L25 23.6621C23.3081 21.4045 21.5826 19.1714 19.8233 16.9629C18.99 15.7183 17.5087 15.8057 16.604 16.9994C15.1145 19.3447 13.6582 21.7129 12.2349 24.1043L14.5667 23.9323C13.094 22.5751 11.6062 21.2323 10.1031 19.9038C9.6307 19.4863 9.15676 19.0701 8.68132 18.6554C8.52131 18.516 8.31629 18.4309 8.10125 18.4283C7.88629 18.4255 7.68036 18.5042 7.52659 18.6489C7.37282 18.7936 7.28187 18.9944 7.27158 19.2092C7.26121 19.424 7.33378 19.6338 7.46321 19.8019C7.46321 19.8019 7.46321 19.8019 7.46321 19.8019C7.84843 20.3016 8.23514 20.7998 8.62336 21.2966C9.8585 22.8773 11.1089 24.4437 12.3744 25.9957C13.1326 26.6953 14.178 26.7099 14.7062 25.8237C16.4537 23.6581 18.1681 21.4693 19.8494 19.2576L16.63 19.2941C18.1975 21.6426 19.7986 23.9665 21.4334 26.2658C22.4094 27.5691 24.0236 27.6027 24.9838 26.2877C25.7127 25.3397 26.4355 24.3872 27.1524 23.4303C28.6581 21.4202 29.9257 19.2319 30.9554 16.8653C31.2128 16.2736 31.4554 15.6708 31.683 15.0569Z" fill="url(#paint1_linear_118_151)"/>
<defs>
<linearGradient id="paint0_linear_118_151" x1="19.4364" y1="0.323486" x2="19.4364" y2="39.1963" gradientUnits="userSpaceOnUse">
<stop stop-color="#3872D5"/>
<stop offset="1" stop-color="#51C3D3"/>
</linearGradient>
<linearGradient id="paint1_linear_118_151" x1="19.5429" y1="14.5554" x2="19.5429" y2="24.964" gradientUnits="userSpaceOnUse">
<stop stop-color="#3872D5"/>
<stop offset="1" stop-color="#51C3D3"/>
</linearGradient>
</defs>
</svg>
