<svg width="39" height="39" viewBox="0 0 39 39" fill="none" xmlns="http://www.w3.org/2000/svg">
<rect x="1.80557" y="1.80557" width="35.2617" height="35.2617" rx="17.6308" stroke="url(#paint0_linear_118_153)" stroke-width="3.61114"/>
<path d="M31.683 14.7334C31.7519 14.5458 31.7829 14.3397 31.7437 14.1412C31.7046 13.9428 31.6004 13.7698 31.4463 13.6543C31.2922 13.5388 31.0968 13.4875 30.8955 13.5058C30.694 13.524 30.5048 13.6117 30.3442 13.7305C30.3442 13.7305 30.3442 13.7305 30.3442 13.7305C29.819 14.1216 29.3087 14.5238 28.8133 14.9371C26.8315 16.5906 25.0878 18.4223 23.5822 20.4324C22.8653 21.3894 22.1544 22.3508 21.4496 23.3168L25 23.3387C23.3081 21.081 21.5826 18.8479 19.8233 16.6394C18.99 15.3948 17.5087 15.4822 16.604 16.676C15.1145 19.0212 13.6582 21.3894 12.2349 23.7808L14.5667 23.6088C13.094 22.2517 11.6062 20.9088 10.1031 19.5804C9.6307 19.1628 9.15676 18.7466 8.68132 18.3319C8.52131 18.1925 8.31629 18.1074 8.10125 18.1048C7.88629 18.1021 7.68036 18.1807 7.52659 18.3254C7.37282 18.4702 7.28187 18.671 7.27158 18.8857C7.26121 19.1005 7.33378 19.3103 7.46321 19.4784C7.46321 19.4784 7.46321 19.4784 7.46321 19.4784C7.84843 19.9781 8.23514 20.4763 8.62336 20.9732C9.8585 22.5538 11.1089 24.1202 12.3744 25.6722C13.1326 26.3718 14.178 26.3865 14.7062 25.5002C16.4537 23.3346 18.1681 21.1459 19.8494 18.9341L16.63 18.9706C18.1975 21.3191 19.7986 23.643 21.4334 25.9423C22.4094 27.2456 24.0236 27.2792 24.9838 25.9642C25.7127 25.0162 26.4355 24.0638 27.1524 23.1068C28.6581 21.0967 29.9257 18.9084 30.9554 16.5418C31.2128 15.9501 31.4554 15.3473 31.683 14.7334Z" fill="url(#paint1_linear_118_153)"/>
<defs>
<linearGradient id="paint0_linear_118_153" x1="19.4364" y1="0" x2="19.4364" y2="38.8728" gradientUnits="userSpaceOnUse">
<stop stop-color="#3872D5"/>
<stop offset="1" stop-color="#51C3D3"/>
</linearGradient>
<linearGradient id="paint1_linear_118_153" x1="19.5429" y1="14.2319" x2="19.5429" y2="24.6405" gradientUnits="userSpaceOnUse">
<stop stop-color="#3872D5"/>
<stop offset="1" stop-color="#51C3D3"/>
</linearGradient>
</defs>
</svg>
